<svg width="33" height="32" viewBox="0 0 33 32" fill="none" xmlns="http://www.w3.org/2000/svg">
<path d="M12.62 28.8101C12.28 28.9301 11.72 28.9301 11.38 28.8101C8.48 27.8201 2 23.6901 2 16.6901C2 13.6001 4.49 11.1001 7.56 11.1001C9.38 11.1001 10.99 11.9801 12 13.3401C13.01 11.9801 14.63 11.1001 16.44 11.1001C19.51 11.1001 22 13.6001 22 16.6901C22 23.6901 15.52 27.8201 12.62 28.8101Z" stroke="#270A05" stroke-width="1.5" stroke-linecap="round" stroke-linejoin="round"/>
<circle cx="24" cy="9" r="9" fill="#270A05"/>
<path d="M23.6523 13.168C23.2203 13.168 22.8563 13.136 22.5603 13.072C22.2723 13.008 21.9163 12.896 21.4923 12.736L21.1923 11.2H21.3243C22.0283 11.728 22.7803 11.992 23.5803 11.992C24.1243 11.992 24.5763 11.84 24.9363 11.536C25.2963 11.224 25.4763 10.78 25.4763 10.204C25.4763 9.636 25.3043 9.196 24.9603 8.884C24.6163 8.564 24.1723 8.404 23.6283 8.404C22.9723 8.404 22.2763 8.624 21.5403 9.064L21.2523 9.016L21.7803 4.6H26.4243V5.776H22.8123L22.5363 7.624C23.0083 7.424 23.4803 7.324 23.9523 7.324C24.8323 7.324 25.5283 7.576 26.0403 8.08C26.5523 8.584 26.8083 9.28 26.8083 10.168C26.8083 10.768 26.6683 11.296 26.3883 11.752C26.1163 12.2 25.7403 12.548 25.2603 12.796C24.7803 13.044 24.2443 13.168 23.6523 13.168Z" fill="white"/>
</svg>
