<?xml version="1.0" encoding="utf-8"?>
<!-- Generator: Adobe Illustrator 24.0.1, SVG Export Plug-In . SVG Version: 6.00 Build 0)  -->
<svg version="1.1" id="Layer_1" xmlns="http://www.w3.org/2000/svg" xmlns:xlink="http://www.w3.org/1999/xlink" x="0px" y="0px"
	 viewBox="0 0 203 39" style="enable-background:new 0 0 203 39;" xml:space="preserve">
<style type="text/css">
	.st0{fill:#1E1E1E;}
	.st1{clip-path:url(#SVGID_2_);}
	.st2{fill:#FFFFFF;}
	.st3{fill:#270A05;}
</style>
<rect y="0" class="st0" width="203" height="39"/>
<g>
	<defs>
		<rect id="SVGID_1_" x="-849.3" y="-39.3" width="1920" height="4931"/>
	</defs>
	<clipPath id="SVGID_2_">
		<use xlink:href="#SVGID_1_"  style="overflow:visible;"/>
	</clipPath>
	<g class="st1">
		<rect x="-849.3" y="-39.3" class="st2" width="1920" height="4931"/>
		<path class="st3" d="M205.2,5.5c0.7,0.1,1.5,0.3,2.2,0.5c0.8,0.3,1.5,0.6,2.1,1.1c0.6,0.5,1.1,1,1.5,1.7c0.4,0.6,0.6,1.4,0.6,2.2
			c-0.1,1.1-0.4,2-1,2.6c-0.6,0.6-1.3,1.1-2.1,1.4c-0.8,0.3-1.7,0.6-2.6,0.7c-0.9,0.2-1.7,0.4-2.3,0.6c-1.2,0.4-1.9,1-2.3,1.7
			c-0.3,0.5-0.3,1,0,1.5c0.3,0.5,0.7,1,1.3,1.5c0.6,0.5,1.3,0.9,2.1,1.2c0.8,0.3,1.6,0.4,2.5,0.4c0.7,0,1.5-0.1,2.2-0.4
			c0.7-0.3,1.3-0.8,1.8-1.4c0.1-0.2,0.3-0.3,0.5-0.3c0.1,0,0.2,0.1,0.3,0.2c0.1,0.1,0.2,0.2,0.2,0.4c0,0.1-0.1,0.2-0.2,0.3
			c-0.1,0.1-0.1,0.2-0.2,0.3c-1,1.5-2.2,2.5-3.6,3.2c-1.3,0.6-2.7,1-4.1,1c-1.7,0-3.2-0.3-4.5-1c-1.2-0.6-2.3-1.5-3.1-2.5
			c-0.8-1-1.4-2.1-1.7-3.4c-0.3-1.3-0.5-2.6-0.4-3.9c0.1-1.3,0.4-2.6,0.9-3.8c0.5-1.2,1.2-2.3,2.1-3.3c0.9-0.9,2-1.6,3.3-2.1
			C202,5.5,203.5,5.4,205.2,5.5z M200.1,16.9c0.1,0.5,0.3,0.5,0.6,0.2c0.3-0.5,0.7-0.9,1.2-1.2c0.5-0.3,1-0.7,1.5-1
			c0.5-0.3,1.1-0.7,1.6-1c0.5-0.3,1-0.7,1.4-1.2c0.4-0.4,0.7-1,0.9-1.5c0.2-0.6,0.3-1.4,0.2-2.2c-0.2-0.8-0.5-1.4-1-1.7
			c-0.5-0.4-1.1-0.6-1.8-0.6c-0.4,0-0.9,0.1-1.4,0.2c-0.9,0.3-1.7,0.9-2.2,1.7c-0.5,0.8-0.9,1.7-1.1,2.6c-0.2,1-0.3,1.9-0.3,3
			C199.8,15.1,199.9,16.1,200.1,16.9z"/>
		<path class="st3" d="M172.9,5.8h8.7c0.1,0,0.2,0.1,0.2,0.2c0,0.1,0,0.2-0.2,0.2c-0.2,0-0.4,0-0.5,0.1c-0.1,0.1-0.2,0.3-0.3,0.5
			c0,0.2,0,0.5,0.2,0.9l4.2,10.4c0.1,0.3,0.2,0.2,0.4-0.1l4.2-10.3c0.2-0.4,0.2-0.7,0.2-0.9c0-0.2-0.1-0.4-0.2-0.5
			c-0.2-0.1-0.3-0.1-0.6-0.1c-0.1,0-0.2-0.1-0.2-0.2c0-0.1,0.1-0.2,0.2-0.2h3.8c0.1,0,0.2,0.1,0.2,0.2c0,0.1-0.1,0.2-0.2,0.2
			c-0.1,0-0.2,0-0.4,0c-0.2,0-0.4,0.2-0.6,0.4c-0.2,0.2-0.5,0.5-0.8,1c-0.3,0.4-0.6,1.1-1,1.9l-6.4,15.7c-0.1,0.1-0.1,0.2-0.3,0.3
			c-0.1,0.1-0.3,0.2-0.5,0.2c-0.4,0-0.6-0.2-0.8-0.5l-6.5-15.7c-0.3-0.9-0.7-1.5-1-1.9c-0.3-0.5-0.6-0.8-0.9-1
			c-0.2-0.2-0.4-0.4-0.6-0.4c-0.2,0-0.3,0-0.4,0c-0.1,0-0.2-0.1-0.2-0.2C172.7,5.8,172.8,5.8,172.9,5.8z"/>
		<path class="st3" d="M159.1,8.7l7.4-3c0.2-0.1,0.3,0,0.3,0.2l0,16.2c0,1.3,0.5,2.3,1.5,3.1l0.4,0.3c0.1,0.1,0.1,0.1,0.1,0.2
			c0,0.1-0.1,0.2-0.2,0.2h-9.2c-0.1,0-0.2-0.1-0.2-0.2c0-0.1,0-0.2,0.1-0.2l0.4-0.3c0.5-0.4,0.9-0.8,1.1-1.4
			c0.3-0.6,0.4-1.1,0.4-1.7l0-9.5c0-0.7-0.2-1.4-0.6-2.1c-0.4-0.6-0.9-1.1-1.6-1.4C159.1,9,159,8.9,159,8.8
			C159.1,8.7,159.1,8.7,159.1,8.7z M160.6,0.8c0-0.8,0.3-1.5,0.9-2.1c0.6-0.6,1.3-0.9,2.1-0.9c0.8,0,1.5,0.3,2.1,0.9
			c0.6,0.6,0.9,1.3,0.9,2.1c0,0.8-0.3,1.5-0.9,2.1c-0.6,0.6-1.3,0.9-2.1,0.9c-0.8,0-1.5-0.3-2.1-0.9C160.9,2.3,160.6,1.6,160.6,0.8z
			"/>
		<path class="st3" d="M144.6-2.2l7.4-3c0.2-0.1,0.3,0,0.3,0.2v27c0,0.6,0.1,1.2,0.4,1.7c0.3,0.5,0.7,1,1.2,1.4l0.4,0.3
			c0.1,0.1,0.1,0.1,0.1,0.2c0,0.1-0.1,0.2-0.2,0.2H145c-0.1,0-0.2-0.1-0.2-0.2c0-0.1,0-0.2,0.1-0.2l0.4-0.3c0.5-0.4,0.9-0.8,1.1-1.4
			c0.3-0.6,0.4-1.1,0.4-1.7V1.6c0-0.7-0.2-1.4-0.6-2.1c-0.4-0.6-0.9-1.1-1.6-1.4c-0.1-0.1-0.1-0.1-0.1-0.2
			C144.6-2.1,144.6-2.2,144.6-2.2z"/>
		<path class="st3" d="M118.7-2.2l7.4-3c0.2-0.1,0.3,0,0.3,0.2v19.5c0,0.2,0.1,0.4,0.2,0.5c0.1,0.1,0.3,0.2,0.5,0.2
			c0.1,0,0.3-0.1,0.5-0.2l7.6-7.4c0.3-0.3,0.4-0.5,0.5-0.7c0.1-0.2,0-0.4-0.1-0.5c-0.1-0.1-0.2-0.2-0.5-0.3C135,6,134.9,5.9,135,5.8
			c0-0.1,0.1-0.2,0.2-0.2h4.3c0.1,0,0.2,0.1,0.2,0.2c0,0.1,0,0.2-0.1,0.2c-0.3,0-0.6,0.1-0.9,0.2c-0.3,0.1-0.6,0.3-1,0.5
			c-0.3,0.2-0.7,0.5-1,0.8l-5.5,5.3c-0.3,0.3-0.3,0.5-0.1,0.9l7.2,10.2c0.3,0.4,0.6,0.6,0.8,0.9c0.3,0.2,0.5,0.3,0.7,0.4
			c0.2,0.1,0.5,0.2,0.7,0.2c0.1,0.1,0.1,0.1,0,0.2c0,0.1-0.1,0.2-0.2,0.2h-8.3c-0.1,0-0.2-0.1-0.2-0.2c0-0.1,0-0.2,0.1-0.2
			c0.3-0.1,0.6-0.1,0.7-0.3c0.1-0.1,0.2-0.3,0.3-0.5c0.1-0.2,0-0.5-0.3-0.8l-4.8-6.8c-0.1-0.2-0.3-0.2-0.5-0.2c-0.2,0-0.3,0-0.5,0.2
			l-0.3,0.3c-0.2,0.2-0.2,0.3-0.2,0.5V22c0,0.6,0.1,1.2,0.4,1.7c0.3,0.5,0.7,1,1.2,1.4l0.4,0.3c0.1,0.1,0.1,0.1,0.1,0.2
			c0,0.1-0.1,0.2-0.2,0.2H119c-0.1,0-0.2-0.1-0.2-0.2c0-0.1,0-0.2,0.1-0.2l0.4-0.3c0.5-0.4,0.9-0.8,1.1-1.4c0.3-0.6,0.4-1.1,0.4-1.7
			V1.6c0-0.7-0.2-1.4-0.6-2.1c-0.4-0.6-0.9-1.1-1.6-1.4c-0.1-0.1-0.1-0.1-0.1-0.2C118.6-2.1,118.6-2.2,118.7-2.2z"/>
		<path class="st3" d="M106.6,5.5c0.9,0,1.8,0.2,2.6,0.5c0.9,0.3,1.7,0.7,2.4,1.3c0.7,0.6,1.3,1.3,1.7,2.1c0.4,0.8,0.7,1.7,0.7,2.8
			c0,0.1,0,0.2-0.1,0.1l-4.6-1.6c0,0,0-0.1,0-0.1c0.2-0.4,0.3-0.8,0.3-1.2c0-0.5-0.1-0.9-0.2-1.2c-0.2-0.4-0.4-0.7-0.8-1
			c-0.4-0.3-0.9-0.4-1.5-0.4c-1,0-1.8,0.4-2.6,1.2c-0.7,0.8-1.2,1.8-1.6,3c-0.4,1.2-0.5,2.5-0.5,4c0,1.4,0.3,2.7,0.7,3.9
			c0.5,1.2,1.2,2.2,2.2,3c1,0.8,2.2,1.2,3.8,1.2c1,0,1.9-0.2,2.7-0.5c0.9-0.3,1.5-0.8,2-1.4c0.2-0.2,0.3-0.3,0.5-0.3
			c0.2,0,0.4,0.1,0.5,0.3c0.1,0.2,0.1,0.4-0.1,0.7c-1.1,1.5-2.3,2.5-3.6,3.2c-1.3,0.6-2.7,1-4.1,1c-1.2,0-2.5-0.2-3.6-0.7
			c-1.2-0.5-2.2-1.2-3.1-2c-0.9-0.9-1.6-1.9-2.2-3.1c-0.6-1.2-0.9-2.5-0.9-3.9c0-1.4,0.2-2.7,0.6-4c0.4-1.3,1.1-2.4,1.9-3.4
			c0.9-1,1.9-1.8,3.1-2.4C103.8,5.8,105.1,5.5,106.6,5.5z"/>
		<path class="st3" d="M75.3,15.8c0-1.4,0.2-2.8,0.7-4c0.5-1.3,1.1-2.4,2-3.3s1.8-1.7,2.9-2.2c1.1-0.5,2.3-0.8,3.6-0.8
			c1.3,0,2.5,0.3,3.6,0.8c1.1,0.5,2.1,1.2,2.9,2.2s1.5,2,2,3.3c0.5,1.2,0.7,2.6,0.7,4c0,1.4-0.2,2.8-0.7,4c-0.5,1.2-1.1,2.3-2,3.3
			s-1.8,1.7-2.9,2.2c-1.1,0.5-2.3,0.8-3.6,0.8c-1.3,0-2.5-0.3-3.6-0.8c-1.1-0.5-2.1-1.3-2.9-2.2s-1.5-2-2-3.3
			C75.6,18.5,75.3,17.2,75.3,15.8z M80.9,15.8c0,1.3,0.1,2.5,0.2,3.6c0.1,1.1,0.3,2.1,0.6,2.9c0.3,0.8,0.7,1.5,1.2,2
			c0.5,0.5,1.1,0.7,1.7,0.7s1.2-0.2,1.7-0.7c0.5-0.5,0.9-1.1,1.2-2c0.3-0.9,0.5-1.8,0.7-2.9c0.1-1.1,0.2-2.3,0.2-3.6
			c0-1.3-0.1-2.5-0.2-3.6c-0.1-1.1-0.3-2.1-0.7-2.9c-0.3-0.9-0.7-1.5-1.2-2c-0.5-0.5-1-0.7-1.7-0.7s-1.3,0.2-1.7,0.7
			c-0.5,0.5-0.9,1.1-1.2,1.9c-0.3,0.8-0.5,1.8-0.6,2.9C80.9,13.3,80.9,14.5,80.9,15.8z"/>
		<path class="st3" d="M62.1-2.2l7.4-3c0.2-0.1,0.3,0,0.3,0.2v27c0,0.6,0.1,1.2,0.4,1.7c0.3,0.5,0.7,1,1.2,1.4l0.4,0.3
			c0.1,0.1,0.1,0.1,0.1,0.2c0,0.1-0.1,0.2-0.2,0.2h-9.1c-0.1,0-0.2-0.1-0.2-0.2c0-0.1,0-0.2,0.1-0.2l0.4-0.3
			c0.5-0.4,0.9-0.8,1.1-1.4c0.3-0.6,0.4-1.1,0.4-1.7V1.6c0-0.7-0.2-1.4-0.6-2.1c-0.4-0.6-0.9-1.1-1.6-1.4C62-1.9,62-2,62-2.1
			C62-2.1,62.1-2.2,62.1-2.2z"/>
		<path class="st3" d="M36.7,11.5c0-0.1,0-0.2-0.1-0.4s-0.2-0.4-0.4-0.7c-0.2-0.3-0.4-0.5-0.6-0.7C35.4,9.4,35,9.2,34.7,9
			c-0.1-0.1-0.1-0.1-0.1-0.2c0-0.1,0.1-0.1,0.1-0.2l7.4-3c0.2-0.1,0.3,0,0.3,0.2c0,0.3,0,0.6,0,0.9c0,0.3,0,0.6,0,0.9
			c-0.5,0.3-1.1,0.6-1.8,1.1c-0.6,0.4-1.4,0.9-2.2,1.5c-0.3,0.2-0.5,0.4-0.8,0.6C37.3,11.1,37,11.3,36.7,11.5z M44.4,25.4
			c0.1,0.1,0.1,0.1,0.1,0.2c0,0.1-0.1,0.2-0.2,0.2h-9.1c-0.1,0-0.2-0.1-0.2-0.2c0-0.1,0-0.2,0.1-0.2l0.4-0.3c1-0.8,1.5-1.8,1.5-3.1
			v-7.5c0.5-0.4,1-0.8,1.5-1.2c0.5-0.4,1-0.7,1.5-1.1c0.6-0.4,1.1-0.8,1.5-1c0.4-0.3,0.8-0.5,1.2-0.7c-0.1,0.3-0.2,0.7-0.2,1
			c0,1.8,0,3.5,0,5.3c0,1.7,0,3.5,0,5.3c0,0.6,0.1,1.2,0.4,1.7c0.3,0.5,0.7,1,1.2,1.4L44.4,25.4z M24.8,12.5c0-0.7-0.2-1.4-0.6-2.1
			S23.4,9.3,22.7,9c-0.1-0.1-0.1-0.1-0.1-0.2c0-0.1,0.1-0.1,0.1-0.2l7.4-3c0.2-0.1,0.3,0,0.3,0.2v10.7c-1.1,0.8-2.1,1.6-3.1,2.4
			c-1,0.8-1.9,1.5-2.7,2.1c0.1-0.3,0.2-0.8,0.3-1.3c0.1-0.4,0.1-0.8,0-1.1V12.5z M30.5,19.6c0.1,0.6,0.3,1.1,0.7,1.6
			c0.4,0.5,0.9,0.9,1.4,1.2c0.1,0.1,0.1,0.1,0,0.2c0,0.1,0,0.1-0.1,0.2l-7.4,3c-0.2,0.1-0.3,0-0.3-0.2v-1.3V24
			c0.7-0.5,1.4-1.1,2.3-1.8c0.9-0.7,1.8-1.5,2.9-2.3c0.1-0.1,0.1-0.1,0.2-0.2C30.3,19.7,30.4,19.6,30.5,19.6z M55.3,22
			c0,1.3,0.5,2.3,1.5,3.1l0.4,0.3c0.1,0.1,0.1,0.1,0.1,0.2c0,0.1-0.1,0.2-0.2,0.2H48c-0.1,0-0.2-0.1-0.2-0.2c0-0.1,0-0.2,0.1-0.2
			l0.4-0.3c0.5-0.4,0.9-0.8,1.1-1.4c0.3-0.5,0.4-1.1,0.4-1.7V11.4c0-1.2-0.3-2-0.8-2.4c-0.5-0.5-1.2-0.7-2-0.6
			c-0.8,0-1.7,0.2-2.7,0.7c-1,0.4-1.9,0.9-2.9,1.5c-1,0.5-1.8,1.1-2.7,1.7c-0.8,0.6-1.4,1-1.9,1.4c-1.1,0.8-2.2,1.7-3.3,2.6
			c-1.1,0.9-2.1,1.7-3.2,2.6c-0.6,0.5-1.2,1-1.9,1.6c-0.7,0.6-1.4,1.1-2.1,1.7c-0.7,0.6-1.4,1.1-2.2,1.6c-0.7,0.5-1.4,0.9-2.1,1.2
			c-1.1,0.5-2.2,0.9-3.4,1.1c-1.2,0.2-2.3,0.1-3.3-0.3c-1-0.4-1.8-1-2.5-2c-0.6-1-1-2.4-1-4.3l0-6.9c0-0.7-0.2-1.4-0.6-2.1
			C11,9.8,10.5,9.3,9.8,9C9.7,9,9.7,8.9,9.7,8.8c0-0.1,0.1-0.1,0.1-0.2l7.4-3c0.2-0.1,0.3,0,0.3,0.2l0,13.5c0,0.7,0.1,1.4,0.4,1.9
			c0.3,0.5,0.6,1,1,1.3c0.4,0.3,0.9,0.6,1.4,0.7c0.5,0.1,1,0.2,1.5,0.1c0.5-0.1,1.1-0.4,1.9-0.9c0.8-0.5,1.7-1.1,2.5-1.7
			s1.7-1.3,2.4-1.9c0.8-0.6,1.4-1.1,1.7-1.4c1.1-0.9,2.2-1.7,3.2-2.6c1.1-0.9,2.2-1.7,3.3-2.6c0.8-0.6,1.8-1.3,2.8-2.1
			c1.1-0.8,2.2-1.5,3.3-2.1c1.2-0.7,2.3-1.2,3.5-1.7c1.2-0.5,2.2-0.7,3.2-0.7c1.4,0,2.5,0.3,3.3,0.9s1.4,1.4,1.8,2.5
			c0.3,0.9,0.5,2,0.5,3.3V22z"/>
		<path class="st3" d="M78.9,4.3c0.2-0.1,0.5-0.2,0.7-0.3c1-0.3,1.9-0.6,2.9-0.7c0.5-0.1,1-0.1,1.5-0.1c1.9,0,3.7,0.4,5.2,1.2
			c1.9,1,3.4,2.3,4.5,4C93.9,8.8,94,9,94.2,9.3l1.9-6c-0.3-0.1-0.7-0.1-1-0.2c-1.1-0.4-2.1-1-2.9-1.8c-1.3,0.2-2.5,0.1-3.8-0.3
			C87.1,0.6,86-0.1,85.1-1c-1.1,0.2-2.3,0.2-3.4-0.2c-0.3-0.1-0.7-0.2-1-0.4L78.9,4.3z"/>
		<path class="st3" d="M84.9-11.2c0.5,0.2,1,0.4,1.4,0.7c1.6-1.5,3.9-2.2,6.2-1.4c2.3,0.7,3.8,2.6,4.2,4.7c0.5,0,1,0.1,1.5,0.2
			c2.5,0.8,3.9,3.5,3.1,6c-0.8,2.5-3.5,3.9-6,3.1c-1.2-0.4-2.1-1.2-2.7-2.2c-1.2,0.4-2.6,0.5-4,0.1c-1.3-0.4-2.4-1.3-3.2-2.3
			c-1,0.5-2.3,0.6-3.5,0.2c-2.5-0.8-3.9-3.5-3.1-6C79.7-10.6,82.4-12,84.9-11.2z"/>
	</g>
</g>
</svg>
