<svg width="289" height="214" viewBox="0 0 289 214" fill="none" xmlns="http://www.w3.org/2000/svg">
<g opacity="0.07">
<path d="M139.891 24.2365C142.031 23.1593 143.972 22.8326 146.024 23.8597C148.449 25.0569 150.916 26.2419 153.018 28.0861C154.051 29.2675 155.157 30.3817 156.117 31.6303C159.535 35.9606 161.946 40.8111 163.466 46.1023C166.054 55.1058 166.572 64.1496 164.344 73.2898C163.226 77.7684 161.431 81.9798 158.109 85.3827C153.757 89.867 147.856 90.7313 142.389 87.6366C138.791 85.5754 136.145 82.6404 133.998 79.1922C128.934 71.2237 126.945 62.3715 126.622 53.0407C126.451 48.4241 126.897 43.8613 128.167 39.4313C129.983 32.7193 133.565 27.4861 139.891 24.2365ZM153.885 84.8413C154.642 85.2242 155.166 84.4731 155.678 84.0026C158.373 81.4729 160.041 78.268 160.989 74.8082C164.737 60.9814 162.925 47.9207 155.427 35.6629C154.546 34.2068 153.476 32.8974 151.344 31.7546C151.713 33.3579 151.903 34.181 152.093 35.004C152.866 38.0155 152.601 40.9556 151.58 43.8361C150.972 45.5815 150.363 47.3269 149.768 49.1149C148.527 52.8435 149.063 56.1543 151.953 58.973C154.587 61.5421 156.111 64.7536 156.946 68.3017C157.842 72.0631 157.578 75.6498 155.66 79.1113C154.959 80.375 154.357 81.6568 153.809 82.9691C153.602 83.5366 153.005 84.3549 153.885 84.8413ZM134.927 75.1835C134.927 75.1835 135.14 75.1221 135.268 75.0853C135.195 74.8293 135.091 74.6282 135.017 74.3722C134.889 74.409 134.761 74.4458 134.675 74.4704C134.749 74.7264 134.81 74.9398 134.927 75.1835ZM133.011 71.2531C133.225 71.1917 133.56 71.2338 133.579 71.1362C133.737 70.7212 133.553 70.4044 133.211 70.1793C133.144 70.1062 132.93 70.1676 132.857 70.2348C132.461 70.6259 132.785 70.9485 133.011 71.2531ZM131.858 67.242C131.968 67.3028 132.377 66.9545 132.413 66.7592C132.437 66.5213 132.266 66.2472 132.193 65.9911C131.979 66.0525 131.778 66.1565 131.522 66.2302C131.363 66.6452 131.388 67.0538 131.858 67.242ZM130.516 62.7312C130.772 62.6575 131.108 62.6996 131.254 62.5652C131.388 62.3881 131.29 62.0467 131.314 61.8088C131.058 61.8825 130.722 61.8404 130.588 62.0175C130.485 62.1396 130.528 62.4506 130.516 62.7312ZM129.98 59.0971C130.06 59.2129 130.53 59.0779 130.676 58.9435C131.371 58.1433 131.424 57.2039 130.929 56.2839C130.837 56.1255 130.483 56.181 130.233 56.1143C129.477 56.7011 129.333 58.4518 129.98 59.0971ZM129.643 52.7732C129.868 52.7545 130.161 52.8088 130.308 52.6744C131.43 51.7515 131.495 50.5316 131.127 49.2514C131.029 48.9101 130.779 48.8434 130.462 49.027C129.394 49.657 128.927 51.7315 129.643 52.7732ZM130.219 45.1241C130.091 45.4841 129.976 45.8869 130.47 46.1604C131.044 46.2265 131.557 46.0792 131.641 45.4082C131.671 45.03 131.573 44.3654 131.42 44.3169C130.822 44.1655 130.425 44.5565 130.219 45.1241ZM131.427 39.8342C131.39 40.0294 131.464 40.2854 131.525 40.4988C131.537 40.5414 131.849 40.4982 131.879 40.4433C132.159 40.1317 132.397 39.8325 132.61 39.4478C132.671 39.338 132.585 39.0393 132.585 39.0393C132.359 39.0579 132.091 39.0889 131.822 39.1199C131.713 39.3823 131.493 39.584 131.427 39.8342ZM138.049 30.5399C136.173 33.3426 134.626 36.3277 134.619 39.8407C134.674 39.8711 134.729 39.9015 134.771 39.8893C134.729 39.9015 134.656 39.9687 134.613 39.981C134.613 39.981 134.613 39.981 134.601 39.9383C134.601 39.9383 134.601 39.9383 134.613 39.981L134.631 39.8834C134.619 39.8407 134.619 39.8407 134.619 39.8407C133.293 43.9171 132.865 48.0591 133.982 52.2654C133.859 51.5154 133.955 50.8871 134.541 50.3493C135.626 49.2984 137.176 48.8992 137.384 49.6246C137.648 50.7037 136.513 50.9375 136.062 51.6213C136.001 51.7312 135.928 51.7984 135.867 51.9083C135.171 51.7388 134.567 51.7276 134.037 52.2958C134.049 52.3384 134.049 52.3385 134.061 52.3811L134.049 52.3385L134.037 52.2958C133.86 52.4852 133.433 52.6079 133.427 52.7482C133.221 58.6279 133.753 64.3417 136.452 69.7101C136.46 71.186 137.242 72.3007 137.909 73.495L137.897 73.4523C137.885 73.4096 137.885 73.4096 137.885 73.4096C137.927 73.3973 137.97 73.3851 137.97 73.3851C137.94 73.44 137.897 73.4523 137.909 73.495C139 77.2927 141.263 80.3381 144.019 83.0107C145.235 84.1857 146.61 85.2689 147.972 86.3094C149.157 87.216 150.018 86.8303 150.254 85.238C150.562 83.2553 150.969 81.2908 151.68 79.4232C153.791 73.7353 152.594 68.4435 149.829 63.3253C149.345 62.4479 148.789 61.6377 148.22 60.7849C145.756 57.197 145.439 53.3613 146.918 49.3334C147.574 47.4355 148.231 45.5375 149.053 43.7308C151.189 38.7747 150.017 34.2148 147.588 29.7851C147.184 29.0235 146.518 28.4757 145.645 28.1723C142.763 27.1528 139.718 27.9815 138.049 30.5399Z" fill="#7A5941"/>
<path d="M137.494 35.3653C137.451 35.3775 137.409 35.3898 137.354 35.3594L137.494 35.3653C137.45 34.4078 137.718 33.7304 138.657 33.4604C139.383 33.2517 140.054 33.0127 140.768 32.7614C141.257 33.1752 141.746 33.5891 142.235 34.003C141.729 34.6564 141.18 34.6757 140.643 34.7376C139.977 34.8364 139.306 35.0754 138.666 35.2595L138.806 35.2654C138.763 35.2776 138.721 35.2899 138.678 35.3022C138.678 35.3022 138.678 35.3022 138.666 35.2595C138.269 35.3273 137.903 35.3402 137.494 35.3653Z" fill="#7A5941"/>
<path d="M140.939 32.7123C140.897 32.7246 140.811 32.7492 140.768 32.7614C140.768 32.7614 140.756 32.7188 140.713 32.731L140.939 32.7123Z" fill="#7A5941"/>
<path d="M137.29 37.8724C137.357 37.9455 137.412 37.9759 137.479 38.049C138.035 38.5359 139.317 38.4909 139.074 39.577C138.868 40.4678 137.72 40.3356 136.952 40.5565C136.097 40.802 135.505 40.1871 134.827 39.9199C135.711 39.2963 136.754 38.9041 137.29 37.8724Z" fill="#7A5941"/>
<path d="M137.167 37.7688C137.21 37.7565 137.296 37.732 137.308 37.7747C137.32 37.8173 137.32 37.8173 137.29 37.8723C137.235 37.8419 137.222 37.7992 137.167 37.7688Z" fill="#7A5941"/>
<path d="M137.966 41.8356C138.205 41.8596 138.504 42.0969 138.608 42.298C138.712 42.4991 138.652 42.9322 138.493 43.0239C137.682 43.5804 136.846 44.0515 136.011 44.5226C135.272 44.042 134.673 43.5674 135.612 42.6509C136.313 42.0337 137.087 41.6725 137.966 41.8356Z" fill="#7A5941"/>
<path d="M135.98 44.5771C136.022 44.5648 136.065 44.5526 136.053 44.5099C136.108 44.5403 136.108 44.5403 136.163 44.5707L135.98 44.5771Z" fill="#7A5941"/>
<path d="M137.805 45.2995C138.056 45.6894 137.898 46.1045 137.55 46.3429C136.843 46.7772 136.123 47.1688 135.391 47.5177C135.233 47.6095 134.86 47.4394 134.713 47.2506C134.579 47.1044 134.609 46.7262 134.7 46.5614C135.096 45.8471 135.981 45.5467 136.144 44.6682C136.462 44.8079 136.81 44.8927 137.128 45.0324C137.366 45.0564 137.701 45.0985 137.805 45.2995Z" fill="#7A5941"/>
<path d="M135.979 44.5769L136.162 44.5705L136.132 44.6255C136.089 44.6377 136.034 44.6073 135.979 44.5769Z" fill="#7A5941"/>
<path d="M139.68 31.2263C139.654 30.4945 140.344 30.481 140.869 30.3764C141.735 30.1736 142.541 30.404 143.207 30.9517C143.397 31.1282 143.568 31.4024 143.544 31.6403C143.55 31.8233 143.27 32.1348 143.087 32.1412C142.336 32.2645 141.518 31.9915 140.902 32.5842C140.713 32.4077 140.536 32.2738 140.389 32.085C140.089 31.8477 139.68 31.5495 139.68 31.2263Z" fill="#7A5941"/>
<path d="M140.939 32.712L140.713 32.7307C140.744 32.6758 140.786 32.6635 140.872 32.639C140.884 32.6817 140.896 32.7243 140.939 32.712Z" fill="#7A5941"/>
<path d="M137.463 35.4199C137.879 35.5778 138.275 35.51 138.678 35.3019C139.094 36.1062 140.888 35.914 140.383 37.214C140.067 38.044 138.839 37.4729 138.003 37.6207C137.777 37.6394 137.564 37.7008 137.338 37.7195C136.696 36.9338 137.177 36.195 137.463 35.4199Z" fill="#7A5941"/>
<path d="M137.834 52.9598C137.926 53.7647 137.06 53.9675 136.401 54.2492C136.029 54.4024 135.602 54.5251 135.211 54.4526C134.82 54.3801 134.454 54.0697 134.77 53.5629C135.13 53.0439 135.532 52.5126 135.946 52.0239C136.001 52.0543 136.111 52.1151 136.166 52.1455C136.795 52.242 137.729 52.1123 137.834 52.9598Z" fill="#7A5941"/>
<path d="M136.007 51.9142C135.965 51.9265 135.977 51.9691 135.934 51.9814C135.879 51.951 135.824 51.9206 135.782 51.9329L135.867 51.9084C135.824 51.9206 135.782 51.9329 135.782 51.9329L135.812 51.878C135.867 51.9084 135.965 51.9265 136.007 51.9142Z" fill="#7A5941"/>
<path d="M138.97 68.0163C139.153 68.0099 139.495 68.2349 139.557 68.4483C139.618 68.6617 139.558 69.0948 139.356 69.1988C138.448 69.7371 137.508 70.3304 136.427 69.6248C136.828 68.447 137.774 68.0367 138.97 68.0163Z" fill="#7A5941"/>
<path d="M136.427 69.6244C136.397 69.6786 136.397 69.6786 136.367 69.7329C136.355 69.6907 136.343 69.6486 136.343 69.6486C136.373 69.5943 136.415 69.5822 136.427 69.6244Z" fill="#7A5941"/>
<path d="M138.825 64.4545C138.935 64.5153 139.082 64.7041 138.899 65.0338C138.351 66.0228 137.417 66.1525 136.447 66.1542C136.349 66.1361 136.172 66.0022 136.178 65.8619C136.104 65.6059 136.006 65.2645 136.11 65.1424C136.762 64.3545 137.579 63.981 138.825 64.4545Z" fill="#7A5941"/>
<path d="M138.038 60.1077C138.057 60.3334 138.143 60.6321 138.052 60.7969C137.57 61.5357 136.771 61.8116 136.002 62.0325C135.831 62.0816 135.459 61.9115 135.367 61.7531C135.306 61.5397 135.391 61.1919 135.525 61.0148C135.915 60.4408 136.494 60.0434 137.214 59.975C137.452 59.999 137.703 60.0656 138.038 60.1077Z" fill="#7A5941"/>
<path d="M137.655 56.522C137.692 56.65 137.814 56.7535 137.784 56.8084C137.614 57.8272 136.656 57.8716 135.979 58.2509C135.662 58.4345 135.192 58.5695 134.874 58.1065C134.794 57.9908 134.715 57.875 134.721 57.7348C134.848 56.7282 136.781 55.8953 137.655 56.522Z" fill="#7A5941"/>
<path d="M141.956 73.5791C142.237 73.9141 142.262 74.3227 141.963 74.7318C141.592 75.2082 141.14 75.5688 140.578 75.2222C139.766 74.8089 140.492 74.277 140.601 73.6913C141.022 73.7088 141.369 72.8239 141.956 73.5791Z" fill="#7A5941"/>
<path d="M139.793 71.8447C140.08 72.0394 139.97 72.3019 139.72 72.5584C139.196 72.9863 138.69 73.3165 138.012 73.3726C138.372 72.8536 138.731 72.3345 139.158 71.8886C139.207 71.736 139.615 71.7109 139.793 71.8447Z" fill="#7A5941"/>
<path d="M146.435 34.7822C146.331 34.5811 146.27 34.3678 146.209 34.1544C146.379 34.1053 146.495 34.0258 146.605 34.0866C146.923 34.2263 146.996 34.4823 146.746 34.7389C146.716 34.7939 146.447 34.8249 146.435 34.7822Z" fill="#7A5941"/>
<path d="M143.518 78.2116C143.384 78.3887 143.085 78.4746 142.853 78.6336C142.737 78.3899 142.621 78.1461 142.462 77.9146C142.706 77.7983 142.938 77.6393 143.163 77.6206C143.53 77.6078 143.713 77.9246 143.518 78.2116Z" fill="#7A5941"/>
<path d="M152.077 55.3806C151.759 55.2408 151.801 54.9053 152.009 54.661C152.411 54.1297 153.051 53.6224 152.092 53.0203C151.915 52.8864 151.872 52.5754 151.768 52.3743C152.072 51.8249 152.816 51.5186 154.013 51.4982C154.605 51.4667 155.16 51.6304 155.448 52.1483C155.815 52.7819 155.707 54.6606 155.262 54.881C154.243 55.3585 153.194 55.8909 152.077 55.3806Z" fill="#7A5941"/>
<path d="M152.046 50.1233C151.667 50.0935 151.533 49.9474 151.618 49.5996C151.824 48.7088 153.587 48.2482 154.418 48.8872C154.394 49.1251 154.492 49.4664 154.376 49.5459C153.681 50.0229 152.9 50.2011 152.046 50.1233Z" fill="#7A5941"/>
<path d="M154.088 58.0362C153.978 57.9754 153.941 57.5241 154.033 57.3593C154.38 56.7976 154.874 56.7479 155.454 56.9969C155.473 57.2226 155.601 57.509 155.51 57.6738C155.187 58.3209 154.626 58.2975 154.088 58.0362Z" fill="#7A5941"/>
<path d="M153.272 45.382C153.192 45.2662 153.186 45.0833 153.247 44.9734C153.551 44.424 153.997 44.2036 154.541 44.6479C154.718 44.7817 154.718 45.105 154.779 45.3183C154.554 45.6603 153.51 45.7292 153.272 45.382Z" fill="#7A5941"/>
<path d="M158.233 54.1193C158.166 54.0462 158.16 53.8633 158.166 53.723C158.294 53.6862 158.434 53.692 158.562 53.6552C158.599 53.7832 158.593 53.9235 158.63 54.0515C158.459 54.1006 158.288 54.1497 158.233 54.1193Z" fill="#7A5941"/>
<path d="M157.998 51.369C158.071 51.3018 158.211 51.3077 158.352 51.3135C158.346 51.4538 158.352 51.6368 158.304 51.7893C158.206 51.7712 158.108 51.7531 158.01 51.735C158.016 51.5947 157.937 51.4789 157.998 51.369Z" fill="#7A5941"/>
<path d="M81.0581 105.261C83.9967 102.615 87.3635 100.816 91.1524 99.6808C99.0414 97.3676 106.976 97.3049 114.992 98.974C121.531 100.329 127.601 102.788 133.265 107.535C133.644 107.888 134.481 108.71 135.264 109.502C135.777 110.001 136.26 110.555 136.657 111.134C142.142 118.473 141.237 126.586 134.262 132.563C131.14 135.216 127.511 136.906 123.6 137.937C112.623 140.768 101.922 139.732 91.6315 135.298C86.4528 133.044 81.8771 129.832 78.6482 125.032C74.0738 118.124 75.0043 110.742 81.0581 105.261ZM79.7013 118.077C81.9715 122.599 85.4791 125.794 90.0109 128.049C97.7247 131.884 105.778 134.004 114.439 133.733C114.848 133.708 115.251 133.823 115.727 133.871C115.319 134.866 114.544 134.58 113.909 134.624C106.909 135.204 100.23 133.843 93.6715 131.617C92.3954 131.198 91.1978 130.249 89.7153 130.721C92.7759 132.844 96.2564 134.015 99.8038 134.936C106.441 136.632 113.106 136.98 119.843 135.644C124.523 134.715 128.873 132.957 132.592 129.81C134.299 128.349 135.359 126.566 136.217 124.564C136.704 123.362 136.495 122.313 135.505 121.443C135.193 121.163 134.869 120.84 134.527 120.615C127.936 116.504 120.927 114.638 113.221 116.945C111.311 117.54 109.426 118.22 107.59 119.071C104.162 120.657 100.871 120.309 97.6954 118.588C96.4433 117.932 95.3008 117.013 94.1096 116.246C93.0283 115.541 92.0202 114.768 90.939 114.062C88.6116 112.56 86.0968 112.498 83.4978 113.429C82.5827 113.784 81.6372 114.195 80.7467 114.635C78.8924 115.584 78.7406 116.182 79.7013 118.077ZM80.0033 110.923C79.7779 111.264 79.5099 111.619 79.8278 112.082C80.1336 112.502 80.5729 112.422 80.9328 112.226C81.6952 111.822 82.3904 111.345 83.1651 110.984C86.9836 109.148 90.7374 109.178 94.0428 111.831C97.3483 114.484 100.999 114.96 104.941 114.52C106.919 114.321 108.932 113.927 110.824 113.43C118.689 111.354 126.118 112.592 133.325 116.11C133.808 116.341 134.302 116.615 135.115 117.028C135.338 115.07 134.354 114.059 133.578 113.127C130.68 109.479 126.844 107.071 122.654 105.041C121.689 104.579 120.457 105.441 119.895 104.772C119.198 103.956 118.271 104.268 117.794 103.897C116.676 103.063 115.802 102.437 114.589 103.525C114.118 102.367 112.624 103.443 111.981 102.334C111.498 101.456 110.864 101.823 110.303 102.446C109.98 102.77 109.51 102.905 109.351 102.351C109.007 101.156 108.366 101.017 107.586 101.841C106.775 102.721 106.495 102.709 105.883 101.546C105.271 100.382 104.479 101.164 104.01 101.945C103.705 102.495 103.193 102.965 102.862 102.136C102.348 100.667 101.896 100.705 100.921 101.817C100.214 102.574 98.5402 101.577 97.9867 103.029C97.7668 102.908 97.4311 102.866 97.382 102.695C96.8793 100.945 96.0757 102.655 95.63 102.552C91.881 101.412 89.0702 103.698 86.0872 105.063C83.4887 106.318 81.5688 108.486 80.0033 110.923Z" fill="#7A5941"/>
<path d="M94.6131 123.631C94.7108 123.649 94.8757 123.74 94.9002 123.826C95.4266 125.014 95.5442 126.228 95.265 127.509C95.2469 127.607 95.0883 127.698 94.9601 127.735C94.832 127.772 94.722 127.711 94.5817 127.705C93.6708 126.627 93.5098 124.78 94.186 123.754C94.2469 123.644 94.4727 123.625 94.6131 123.631Z" fill="#7A5941"/>
<path d="M101.599 126.382C101.886 126.253 102.002 126.174 102.13 126.137C102.258 126.1 102.411 126.149 102.478 126.222C103.078 127.343 103.336 128.562 103.453 129.776C103.466 130.142 103.277 130.288 102.941 130.246C102.801 130.24 102.648 130.192 102.581 130.119C101.615 129.01 101.516 127.699 101.599 126.382Z" fill="#7A5941"/>
<path d="M88.4578 120.874C89.0933 121.476 89.0223 123.16 88.303 123.875C88.2298 123.942 88.0467 123.948 87.9063 123.942C87.7964 123.882 87.6741 123.778 87.6069 123.705C87.154 122.773 87.2505 121.821 87.7926 120.972C87.8962 120.85 88.3783 120.758 88.4578 120.874Z" fill="#7A5941"/>
<path d="M110.709 128.799C110.917 128.878 111.149 129.042 111.369 129.164C111.436 129.237 111.485 129.408 111.479 129.548C111.51 129.816 111.553 130.127 111.541 130.408C111.475 130.981 111.458 131.725 110.811 131.726C110.444 131.739 110.059 131.203 109.68 130.85C109.917 130.228 110.155 129.605 110.404 129.025C110.465 128.915 110.654 128.769 110.709 128.799Z" fill="#7A5941"/>
<path d="M126.506 129.71C127.057 130.661 126.875 131.637 126.18 132.437C125.93 132.694 125.637 132.639 125.508 132.353C125.086 131.366 125.237 130.445 125.755 129.51C126.005 129.577 126.414 129.552 126.506 129.71Z" fill="#7A5941"/>
<path d="M98.2618 126.509C98.3163 126.54 98.3284 126.582 98.3829 126.612C98.3406 126.624 98.3105 126.679 98.2682 126.691C98.256 126.649 98.2439 126.606 98.2439 126.606C98.2317 126.564 98.2317 126.564 98.2618 126.509Z" fill="#7A5941"/>
<path d="M100.264 127.043C100.332 127.439 100.369 127.891 100.436 128.287C100.516 128.726 100.499 129.147 99.9493 129.166C99.7662 129.172 99.4973 128.88 99.3506 128.691C98.9408 128.07 99.0495 127.161 98.3408 126.626C99.798 125.421 100.006 125.5 100.264 127.043Z" fill="#7A5941"/>
<path d="M91.7124 122.709C91.854 123.685 91.9103 124.685 91.9665 125.685C91.9914 126.094 91.7474 126.21 91.4421 126.113C91.3322 126.052 91.2222 125.991 91.0573 125.9C90.3663 124.944 90.2734 123.816 90.6443 122.693C90.7233 122.485 91.0282 122.259 91.2967 122.228C91.3821 122.203 91.706 122.526 91.7124 122.709Z" fill="#7A5941"/>
<path d="M105.147 127.303C105.287 127.308 105.47 127.302 105.495 127.387C106.106 128.228 106.193 129.173 106.054 130.137C106.012 130.473 105.78 130.631 105.462 130.492C105.352 130.431 105.242 130.37 105.163 130.254C104.68 129.377 104.636 128.42 104.872 127.474C104.946 127.407 105.019 127.339 105.147 127.303Z" fill="#7A5941"/>
<path d="M123.503 129.234C123.753 129.3 124.095 129.849 124.108 130.215C124.109 130.861 123.982 131.544 123.842 132.185C123.806 132.38 123.409 132.448 123.177 132.607C123.098 132.491 122.976 132.388 122.951 132.303C122.853 131.638 122.699 130.943 122.741 130.284C122.746 129.821 122.654 129.016 123.503 129.234Z" fill="#7A5941"/>
<path d="M108.701 128.73C109.038 129.418 109.289 130.131 109.583 130.832C109.137 131.053 108.656 131.791 108.308 131.383C107.678 130.64 107.567 129.61 107.791 128.621C107.81 128.524 107.999 128.377 108.054 128.408C108.274 128.529 108.609 128.571 108.701 128.73Z" fill="#7A5941"/>
<path d="M109.626 130.82C109.638 130.862 109.68 130.85 109.692 130.892C109.662 130.947 109.674 130.989 109.632 131.001C109.62 130.959 109.596 130.874 109.583 130.832L109.626 130.82Z" fill="#7A5941"/>
<path d="M97.3733 124.87C97.4587 124.846 97.6482 125.022 97.685 125.15C97.8748 125.65 98.0647 126.15 98.2545 126.65C98.1818 127.04 98.0968 127.388 98.0667 127.766C98.0062 128.199 97.9031 128.645 97.3415 128.621C97.1584 128.628 96.8468 128.348 96.8282 128.122C96.5584 127.183 96.4045 126.165 96.7695 125.182C96.7631 124.999 97.1171 124.944 97.3733 124.87Z" fill="#7A5941"/>
<path d="M85.2942 119.519C85.9966 119.871 85.7167 120.506 85.6807 121.025C85.6507 121.403 85.3826 121.757 85.2122 122.129L85.3221 122.19L85.084 122.166L85.1695 122.142C84.6565 121.966 84.3935 121.533 84.3318 120.997C84.2578 120.417 84.3242 119.844 84.8854 119.544C85.0012 119.465 85.1843 119.458 85.2942 119.519Z" fill="#7A5941"/>
<path d="M118.202 131.543C118.141 131.653 117.97 131.702 117.873 131.684C117.732 131.678 117.579 131.629 117.512 131.556C116.974 130.648 117.083 129.74 117.405 128.769C117.667 128.879 118.046 128.908 118.138 129.067C118.566 129.914 118.659 130.719 118.202 131.543Z" fill="#7A5941"/>
<path d="M120.292 129.002C120.432 129.008 120.585 129.056 120.652 129.129C121.184 129.854 121.234 130.671 120.918 131.501C120.899 131.599 120.729 131.648 120.6 131.685C120.472 131.722 120.35 131.618 120.253 131.6C119.666 130.845 119.927 129.984 120.06 129.161C119.993 129.088 120.194 128.984 120.292 129.002Z" fill="#7A5941"/>
<path d="M122.59 126.863C122.327 126.43 122.455 126.07 122.79 125.789C122.863 125.722 123.334 125.91 123.37 126.038C123.432 126.252 123.389 126.587 123.268 126.807C123.164 126.929 122.816 126.844 122.59 126.863Z" fill="#7A5941"/>
<path d="M126.422 125.716C126.025 125.46 125.927 125.119 126.28 124.74C126.427 124.606 126.811 124.495 126.921 124.556C127.275 124.824 127.355 125.263 127.087 125.617C126.983 125.739 126.648 125.697 126.422 125.716Z" fill="#7A5941"/>
<path d="M128.783 129.749C128.808 129.835 128.771 130.03 128.698 130.097C128.668 130.152 128.515 130.104 128.375 130.098C128.338 129.97 128.246 129.811 128.277 129.756C128.459 129.427 128.643 129.42 128.783 129.749Z" fill="#7A5941"/>
<path d="M119.079 125.747C119.055 125.662 119.159 125.54 119.177 125.442C119.305 125.405 119.433 125.369 119.5 125.442C119.567 125.515 119.659 125.673 119.641 125.771C119.476 126.003 119.251 126.021 119.079 125.747Z" fill="#7A5941"/>
<path d="M112.829 125.234C112.816 124.868 113.103 124.739 113.39 124.934C113.567 125.068 113.806 125.415 113.757 125.568C113.678 125.775 113.367 125.818 113.135 125.977C113.019 125.734 112.805 125.472 112.829 125.234Z" fill="#7A5941"/>
<path d="M110.894 125.097C110.974 125.213 110.925 125.365 110.919 125.506C110.693 125.524 110.467 125.543 110.242 125.562C110.223 125.336 110.217 125.153 110.198 124.928C110.515 124.744 110.711 124.78 110.894 125.097Z" fill="#7A5941"/>
<path d="M106.669 124.555C106.339 124.373 106.321 124.147 106.607 124.019C106.693 123.994 106.815 124.098 106.913 124.116C106.949 124.244 106.986 124.372 106.968 124.469C106.938 124.524 106.767 124.573 106.669 124.555Z" fill="#7A5941"/>
<path d="M116.815 126.074C116.486 126.215 116.278 126.136 116.29 125.856C116.308 125.758 116.394 125.734 116.454 125.624C116.552 125.642 116.693 125.648 116.747 125.678C116.827 125.794 116.858 126.062 116.815 126.074Z" fill="#7A5941"/>
<path d="M114.372 128.994C114.158 128.732 114.049 129.318 114.17 128.775C114.255 128.427 114.438 128.421 114.579 128.75C114.726 129.262 114.524 128.719 114.372 128.994Z" fill="#7A5941"/>
<path d="M114.312 129.103C114.342 129.049 114.342 129.049 114.384 129.037C114.396 129.079 114.438 129.067 114.451 129.109L114.312 129.103Z" fill="#7A5941"/>
<path d="M114.471 130.305C114.618 130.494 114.862 130.701 114.881 130.927C114.906 131.335 114.772 131.835 114.308 131.83C113.789 131.794 113.795 131.331 113.91 130.928C114.02 130.666 114.251 130.507 114.471 130.305C113.952 129.946 113.927 129.538 114.366 129.134C114.873 129.451 114.898 129.859 114.471 130.305Z" fill="#7A5941"/>
<path d="M114.313 129.103L114.451 129.109C114.409 129.121 114.421 129.164 114.379 129.176C114.367 129.133 114.355 129.091 114.313 129.103Z" fill="#7A5941"/>
<path d="M102.906 107.759C103.126 107.881 103.547 107.899 103.596 108.069C103.86 109.148 103.941 110.234 103.655 111.332C103.619 111.527 103.271 111.766 103.045 111.784C102.905 111.779 102.581 111.456 102.575 111.273C102.488 110.328 102.487 109.358 102.486 108.388C102.467 108.163 102.741 107.991 102.906 107.759Z" fill="#7A5941"/>
<path d="M96.7961 107.252C97.0464 107.318 97.4249 107.348 97.474 107.519C97.9695 108.439 97.9158 109.378 97.5386 110.318C97.4595 110.526 97.1056 110.581 96.8616 110.698C96.7761 110.722 96.6112 110.631 96.5317 110.515C95.9262 109.534 95.7601 108.473 96.3386 107.429C96.5948 107.356 96.6984 107.234 96.7961 107.252Z" fill="#7A5941"/>
<path d="M105.861 108.065C105.959 108.083 106.124 108.175 106.148 108.26C106.552 109.345 106.676 110.418 106.262 111.553C106.232 111.608 106.018 111.67 105.92 111.651C105.823 111.633 105.658 111.542 105.591 111.469C105.101 110.409 105.02 109.323 105.446 108.231C105.605 108.139 105.763 108.047 105.861 108.065Z" fill="#7A5941"/>
<path d="M99.7141 107.753C99.72 107.613 100.037 107.429 100.238 107.325C100.281 107.313 100.544 107.422 100.526 107.52C100.857 108.995 101.439 110.537 99.6946 111.547L99.7677 111.479C99.7356 110.241 99.7035 109.003 99.7141 107.753Z" fill="#7A5941"/>
<path d="M94.783 108.292C94.8448 108.829 94.8211 109.39 94.7301 109.878C94.712 109.976 94.3153 110.044 94.114 110.148C93.5884 109.606 93.5326 108.929 93.7453 108.221C93.8244 108.014 94.1293 107.787 94.3124 107.781C94.4528 107.787 94.7217 108.079 94.783 108.292Z" fill="#7A5941"/>
<path d="M108.547 108.402C108.754 108.481 109.023 108.773 108.987 108.969C109.006 109.517 108.927 110.048 108.794 110.549C108.776 110.646 108.379 110.714 108.165 110.775C107.798 110.142 107.797 109.495 107.925 108.812C108.022 108.507 108.229 108.262 108.547 108.402Z" fill="#7A5941"/>
<path d="M112.02 108.744C112.344 109.066 112.175 110.408 111.76 110.574C111.675 110.598 111.522 110.55 111.369 110.501C110.923 110.075 111.099 108.916 111.599 108.726C111.77 108.677 111.953 108.671 112.02 108.744Z" fill="#7A5941"/>
<path d="M115.018 109.36C115.03 109.726 114.756 109.898 114.426 109.715C114.206 109.594 114.108 109.252 113.992 109.008C114.077 108.661 114.351 108.489 114.626 108.641C114.846 108.763 115.03 109.08 115.018 109.36Z" fill="#7A5941"/>
<path d="M118.149 109.8C118.076 109.867 117.948 109.904 117.863 109.929C117.881 109.831 117.844 109.703 117.905 109.593C117.978 109.526 118.106 109.489 118.234 109.452C118.186 109.605 118.223 109.733 118.149 109.8Z" fill="#7A5941"/>
<path d="M99.7674 111.479C99.7674 111.479 99.6973 111.544 99.7264 111.491C99.7674 111.479 99.7674 111.479 99.7674 111.479Z" fill="#7A5941"/>
<path d="M109.05 220.048C111.873 217.805 115.07 216.378 118.548 215.61C125.846 213.975 133.055 214.444 140.229 216.401C146.109 218.037 151.441 220.663 156.281 225.277C156.617 225.643 157.301 226.416 157.986 227.189C158.402 227.67 158.787 228.206 159.172 228.742C163.686 235.76 162.395 243.014 155.7 248.033C152.736 250.271 149.32 251.576 145.677 252.253C135.541 254.15 125.932 252.569 116.819 247.888C112.263 245.548 108.334 242.335 105.673 237.741C101.893 231.344 103.215 224.682 109.05 220.048ZM107.014 231.628C108.833 235.863 111.809 238.981 115.761 241.31C122.498 245.286 129.71 247.695 137.602 247.968C137.981 247.997 138.329 248.082 138.762 248.142C138.36 248.997 137.628 248.699 137.078 248.719C130.688 248.846 124.698 247.149 118.878 244.756C117.73 244.301 116.716 243.345 115.337 243.695C117.976 245.801 121.073 247.082 124.236 248.113C130.116 250.073 136.19 250.776 142.341 249.978C146.668 249.428 150.731 248.121 154.274 245.487C155.914 244.276 156.993 242.719 157.869 240.943C158.405 239.911 158.264 238.935 157.414 238.071C157.145 237.778 156.876 237.486 156.577 237.249C150.816 233.13 144.606 230.988 137.448 232.629C135.673 233.047 133.922 233.55 132.207 234.181C128.992 235.382 126.031 234.894 123.264 233.148C122.14 232.455 121.193 231.572 120.142 230.812C119.201 230.112 118.334 229.345 117.393 228.645C115.334 227.112 113.063 226.933 110.714 227.608C109.86 227.854 108.975 228.154 108.158 228.527C106.45 229.342 106.274 229.854 107.014 231.628ZM107.738 225.137C107.543 225.424 107.22 225.748 107.526 226.168C107.777 226.558 108.186 226.533 108.546 226.337C109.235 226.001 109.912 225.621 110.656 225.315C114.219 223.875 117.625 224.144 120.509 226.78C123.339 229.385 126.629 230.056 130.236 229.897C132.067 229.833 133.904 229.629 135.649 229.266C142.923 227.868 149.621 229.455 155.894 233.103C156.334 233.346 156.786 233.632 157.458 234.039C157.785 232.282 156.954 231.32 156.318 230.394C153.921 226.879 150.548 224.476 146.938 222.372C146.102 221.874 144.918 222.583 144.454 221.931C143.867 221.176 143 221.379 142.579 221.038C141.601 220.21 140.868 219.59 139.691 220.482C139.329 219.385 137.884 220.309 137.394 219.248C137.021 218.432 136.405 218.701 135.862 219.226C135.57 219.495 135.13 219.575 134.996 219.106C134.762 217.972 134.176 217.863 133.402 218.548C132.597 219.287 132.359 219.263 131.869 218.203C131.367 217.1 130.636 217.772 130.142 218.468C129.813 218.932 129.332 219.348 129.111 218.58C128.719 217.214 128.352 217.227 127.371 218.156C126.682 218.816 125.222 217.757 124.632 219.082C124.454 218.948 124.119 218.906 124.07 218.735C123.701 217.132 122.879 218.615 122.519 218.488C119.197 217.225 116.502 219.108 113.714 220.186C111.182 221.191 109.304 223.024 107.738 225.137Z" fill="#7A5941"/>
<path d="M89.4275 153.854C92.4674 154.136 95.1729 155.345 97.7629 156.956C102.356 159.748 105.92 163.62 108.928 167.976C113.276 174.256 116.306 181.1 117.134 188.807C117.449 191.673 117.385 194.509 116.565 197.286C114.566 204.004 109.039 206.978 102.256 205.093C98.4337 204.021 95.3485 201.812 92.4033 199.286C85.4558 193.291 80.9652 185.065 78.7893 177.976C77.6371 174.288 77.0097 170.496 77.1878 166.611C77.2703 164.323 77.7435 162.109 78.7052 159.984C80.7502 155.516 84.5806 153.399 89.4275 153.854ZM114.048 195.284C114.922 191.568 114.472 187.909 113.612 184.276C112.594 180.088 110.758 176.273 108.867 172.428C108.077 170.807 106.307 170.438 105.591 168.75C105.064 167.562 104.36 165.916 102.559 165.602C102.496 164.096 100.854 164.013 100.212 162.905C98.3218 159.706 95.1276 158.083 91.702 156.943C91.299 156.827 90.8473 156.865 90.5488 157.274C91.0507 158.377 92.217 158.735 93.1029 159.404C95.9681 161.491 97.3694 164.276 97.3313 167.844C97.3194 168.124 97.3626 168.435 97.2957 168.685C96.6356 172.663 98.4398 175.563 101.202 178.095C102.772 179.538 104.312 181.036 105.987 182.356C109.372 185.125 112.234 189.938 112.801 194.164C112.9 194.828 112.925 195.56 113.011 196.182C114.025 196.491 113.932 195.687 114.048 195.284ZM99.3015 200.122C99.5396 200.146 99.7777 200.17 100.003 200.151C99.9422 199.938 99.899 199.627 99.7646 199.481C99.5874 199.347 99.2884 199.433 99.0504 199.409C99.1666 199.652 99.2279 199.866 99.3015 200.122ZM96.7293 198.089C96.8147 198.065 96.906 197.9 96.9119 197.76C96.9301 197.662 96.8202 197.601 96.7407 197.486C96.6248 197.565 96.4417 197.571 96.4235 197.669C96.2531 198.041 96.3998 198.23 96.7293 198.089ZM93.6259 195.978C93.6809 196.009 93.8272 195.874 93.8699 195.862C93.8268 195.551 93.6741 195.503 93.4669 195.747C93.5219 195.777 93.5587 195.905 93.6259 195.978ZM85.8409 179.507C86.767 178.224 86.767 178.224 85.1247 177.819C84.7656 178.661 85.224 179.13 85.8409 179.507ZM81.8499 165.779C82.5446 164.979 83.2394 164.179 83.9342 163.378C83.4521 163.471 83.0005 163.508 82.5307 163.643C81.164 164.036 81.1336 164.091 81.8499 165.779ZM82.0809 160.308C81.7887 160.9 82.1126 161.223 82.8999 161.227C83.0403 161.233 83.1866 161.099 83.327 161.105C85.0481 160.98 85.1276 161.095 84.2877 163C84.2268 163.11 84.2087 163.207 84.1355 163.274C84.4835 163.359 84.8865 163.474 85.2345 163.559C85.7352 163.692 85.9859 164.082 85.8278 164.497C85.3715 165.645 84.3773 166.208 83.2973 166.472C82.9129 166.582 82.3814 166.181 81.8989 165.95C81.1255 167.281 81.8595 168.548 82.087 169.822L82.0929 169.682C82.1356 169.67 82.1356 169.67 82.1906 169.7C82.1602 169.755 82.1601 169.755 82.1297 169.81C82.432 172.31 83.5031 174.589 84.3179 176.942C84.416 177.283 84.8434 177.484 85.1551 177.764C85.6727 176.83 86.1903 175.896 86.7752 175.035C86.9701 174.748 87.5376 174.631 87.9038 174.618C88.4226 174.654 88.4476 175.062 88.3017 175.52C88.1863 175.923 88.0708 176.325 88.7178 176.324C90.6587 176.321 88.8002 178.703 90.4426 179.108C90.7906 179.193 90.0839 180.274 89.6818 180.805C89.4564 181.147 89.1456 181.514 88.8284 181.697C88.2795 182.04 87.7607 182.004 87.8267 181.107C87.9713 179.68 86.9459 179.651 86.0363 179.543C85.8802 181.574 87.5175 182.767 88.1361 184.437C89.6369 183.867 89.8302 182.287 90.9648 181.73C91.2088 181.614 91.6054 181.546 91.7276 181.649C91.9048 181.783 91.9724 182.18 91.9056 182.43C91.6866 182.955 91.4125 183.449 91.1262 183.901C89.4508 186.276 89.4812 186.221 90.9062 188.445C92.527 191.028 94.7817 192.921 97.03 194.631C98.1164 194.55 98.3045 193.756 98.7617 193.255C99.81 192.076 99.7491 192.186 101.361 192.97C102.369 193.42 102.699 193.925 102.237 194.89C101.713 195.964 101.042 196.203 99.8881 195.888C99.6378 195.821 99.4361 195.602 99.2039 195.438C99.1248 195.646 98.9177 195.89 98.9972 196.006C99.7553 197.035 101.104 197.063 102.073 196.092C102.354 195.78 102.622 195.426 102.97 195.187C103.159 195.041 103.537 195.071 103.702 195.162C103.922 195.283 104.118 195.643 104.081 195.838C103.85 196.644 103.509 197.388 103.181 198.176C104.94 199.148 106.693 199.938 108.72 200.233C109.922 200.396 110.343 200.09 110.445 198.998C110.787 194.234 109.744 189.961 106.175 186.552C103.297 183.776 100.504 180.975 97.5217 178.321C94.6497 175.728 93.2053 172.632 93.7314 168.832C94.3781 163.842 92.0486 160.723 87.9685 158.431C84.9573 156.802 83.5906 157.195 82.0809 160.308Z" fill="#7A5941"/>
<path d="M97.7195 189.628C98.7402 190.767 98.8019 191.304 97.8023 192.33C97.4183 192.764 96.8876 193.009 96.4047 192.455C96.1358 192.162 96.0131 191.736 95.7869 191.431C94.7416 190.207 94.6989 190.219 95.6314 189.12C95.9118 188.808 96.2716 188.612 96.6496 188.319C97.053 188.757 97.3588 189.178 97.7195 189.628Z" fill="#7A5941"/>
<path d="M85.208 166.523C85.4643 166.45 85.8 166.492 86.0199 166.613C86.1421 166.717 86.2647 167.144 86.1307 167.321C85.2904 168.902 84.1199 169.977 82.1481 169.712C83.001 168.497 83.6096 167.075 85.208 166.523Z" fill="#7A5941"/>
<path d="M87.2351 171.808C87.3391 172.009 87.5104 172.283 87.419 172.448C87.2486 172.82 86.9682 173.132 86.6942 173.626C86.2857 173.974 85.8163 174.433 85.292 174.861C85.0298 175.074 84.7672 174.965 84.6691 174.624C84.4293 173.307 85.4713 171.945 86.8871 171.723C87.0152 171.686 87.2106 171.722 87.2351 171.808Z" fill="#7A5941"/>
<path d="M92.8779 184.044C93.4276 184.348 93.3735 184.964 93.0568 185.471C92.6669 186.045 92.2097 186.546 91.7526 187.047C91.649 187.169 91.2279 187.151 91.1057 187.048C90.9712 186.902 90.8181 186.53 90.8972 186.323C91.1344 185.7 91.4694 185.096 91.7616 184.503C92.1764 184.338 92.7007 183.91 92.8779 184.044Z" fill="#7A5941"/>
<path d="M94.5412 186.292C95.0359 186.565 94.89 187.023 94.7623 187.383C94.4337 188.17 93.928 188.824 93.1533 189.185C92.8239 189.326 92.6285 189.29 92.4877 188.96C92.4509 188.832 92.3714 188.717 92.3346 188.589C92.2057 187.979 92.5896 187.545 92.9186 187.081C93.0954 186.892 93.3149 186.69 93.4917 186.501C93.7843 186.232 94.1564 186.079 94.5412 186.292Z" fill="#7A5941"/>
<path d="M86.256 170.01C86.056 171.084 85.2327 171.598 84.3176 171.953C84.2321 171.977 84.0245 171.899 83.9451 171.783C83.8778 171.71 83.8715 171.527 83.8897 171.429C84.0601 171.057 84.2305 170.684 84.4618 170.202C84.8521 169.951 85.3279 169.676 85.8159 169.444C85.9013 169.419 86.3047 169.857 86.256 170.01Z" fill="#7A5941"/>
<path d="M105.737 196.61C106.152 196.768 106.244 197.249 105.945 197.658C105.69 198.055 105.275 198.221 104.859 198.063C104.249 197.869 104.383 197.368 104.718 197.087C104.956 196.788 105.431 196.513 105.737 196.61Z" fill="#7A5941"/>
<path d="M102.242 189.761C102.737 190.034 102.494 190.474 102.213 190.785C101.976 191.085 101.555 191.39 101.237 190.927C100.998 190.58 101.157 190.165 101.492 189.884C101.76 189.853 102.12 189.657 102.242 189.761Z" fill="#7A5941"/>
<path d="M96.4495 184.404C96.7544 184.178 97.0474 184.232 97.1455 184.573C97.2068 184.787 97.0914 185.19 96.9328 185.281C96.7742 185.373 96.4444 185.191 96.1941 185.124C96.3159 184.904 96.3827 184.654 96.4495 184.404Z" fill="#7A5941"/>
<path d="M98.3203 186.73C98.3199 186.407 98.6066 186.279 98.906 186.516C99.0832 186.65 99.1995 186.894 99.3158 187.137C99.1145 187.241 98.8582 187.315 98.657 187.419C98.5407 187.175 98.2962 186.968 98.3203 186.73Z" fill="#7A5941"/>
<path d="M108.387 198.112C108.497 198.172 108.619 198.276 108.644 198.361C108.644 198.684 108.431 198.746 108.186 198.539C108.119 198.466 108.113 198.283 108.076 198.155C108.161 198.13 108.29 198.093 108.387 198.112Z" fill="#7A5941"/>
<path d="M88.55 164.639C88.5196 164.694 88.1961 164.694 88.1838 164.652C88.1225 164.438 88.1039 164.213 88.0853 163.987C88.3111 163.968 88.4942 163.962 88.7201 163.943C88.6532 164.193 88.6291 164.431 88.55 164.639Z" fill="#7A5941"/>
<path d="M88.5461 166.072C88.5884 165.737 88.7897 165.633 89.1072 165.772C89.1685 165.986 89.3275 166.217 89.2666 166.327C89.1326 166.504 88.8763 166.578 88.675 166.682C88.6564 166.456 88.5525 166.255 88.5461 166.072Z" fill="#7A5941"/>
<path d="M104.716 191.452C104.863 191.64 104.979 191.884 105.095 192.128C104.967 192.165 104.754 192.226 104.699 192.196C104.552 192.007 104.436 191.763 104.319 191.519C104.448 191.483 104.649 191.378 104.716 191.452Z" fill="#7A5941"/>
<path d="M99.9825 188.655L100.087 188.856L99.8484 188.832L99.9825 188.655Z" fill="#7A5941"/>
<path d="M95.1407 182.424L95.3606 182.546L95.1289 182.705L95.1407 182.424Z" fill="#7A5941"/>
<path d="M99.223 172.012C99.0458 171.878 98.7892 171.629 98.7828 171.446C98.7757 170.616 99.3672 170.261 100.026 169.98C100.484 169.802 101.052 170.008 101.064 170.374C101.06 171.484 101.786 171.599 102.567 171.744C102.934 172.054 103.099 172.469 102.734 172.805C101.941 173.587 100.947 174.473 99.8974 174.359C98.5117 174.203 100.097 172.639 99.223 172.012Z" fill="#7A5941"/>
<path d="M103.321 178.226C103.387 177.976 103.387 177.652 103.564 177.463C103.789 177.121 104.069 176.81 104.417 176.571C104.765 176.333 105.167 176.125 105.516 176.533C105.84 176.855 105.767 177.246 105.365 177.777C105.218 177.911 104.895 178.235 104.511 178.346C104.114 178.414 103.699 178.256 103.321 178.226Z" fill="#7A5941"/>
<path d="M101.615 176.314C101.554 176.101 101.511 175.79 101.602 175.625C102.041 174.898 102.681 174.391 103.517 174.243C103.786 174.212 104.048 174.321 104.286 174.345C104.305 174.571 104.446 174.9 104.354 175.065C103.824 175.956 102.952 176.299 101.976 176.441C101.835 176.435 101.585 176.369 101.615 176.314Z" fill="#7A5941"/>
<path d="M106.167 180.41C105.758 180.112 106.081 179.788 106.318 179.489C106.544 179.47 106.813 179.439 107.026 179.378C106.959 179.628 107.003 179.939 106.868 180.116C106.734 180.293 106.289 180.514 106.167 180.41Z" fill="#7A5941"/>
<path d="M98.6615 167.646C98.8628 167.542 99.0519 167.395 99.2531 167.291C99.2899 167.419 99.3694 167.535 99.3512 167.633C99.3089 167.968 99.1077 168.072 98.8024 167.975C98.7474 167.945 98.741 167.762 98.6615 167.646Z" fill="#7A5941"/>
<path d="M161.609 216.308C164.615 213.412 168.166 212.9 171.964 214.21C174.694 215.181 177.07 216.854 178.917 219.095C185.519 227.269 189.163 236.569 189.42 247.12C189.486 250.566 189.075 253.963 187.95 257.289C186.989 260.06 185.467 262.484 183.168 264.299C180.68 266.261 177.867 266.931 174.729 265.985C172.341 265.239 170.344 263.919 167.631 261.558C166.641 260.687 165.015 258.891 163.682 256.826C158.667 249.028 156.214 240.494 156.184 231.217C156.186 228.168 156.689 225.252 157.711 222.371C158.526 220.058 159.847 218.062 161.609 216.308ZM179.77 261.164C179.991 261.932 180.779 262.26 181.401 261.851C182.59 261.001 183.37 259.853 184.003 258.516C185.391 255.623 186.04 252.572 186.146 249.4C186.47 241.038 184.507 233.241 180.354 226.027C178.873 223.45 176.984 221.221 174.334 219.719C173.822 220.513 174.25 221.037 174.555 221.457C176.451 224.192 176.742 227.296 176.679 230.456C176.667 230.736 176.655 231.017 176.601 231.31C176.077 237.373 175.241 237.521 179.507 241.746C181.237 243.42 181.618 245.712 181.377 248.091C181.142 250.653 180.712 253.179 180.087 255.669C179.588 257.475 179.243 259.329 179.77 261.164ZM167.215 256.088C167.203 256.692 167.478 257.167 168.077 257.318C168.187 257.379 168.613 256.933 168.601 256.89C168.405 256.531 168.167 256.184 167.855 255.904C167.568 255.709 167.324 255.825 167.215 256.088ZM164.756 252.036C164.561 252.647 164.708 253.159 165.258 253.463C165.643 253.675 166.113 253.54 166.161 253.065C166.27 252.479 165.94 251.973 165.372 251.767C165.097 251.615 164.853 251.731 164.756 252.036ZM162.878 249.204C162.976 248.898 163.068 249.38 163.44 249.55C163.813 249.72 164.246 249.457 164.306 249.024C164.409 248.579 164.141 248.287 163.725 248.129C163.42 248.032 163.176 248.148 162.878 249.204ZM161.995 245.808C162.307 246.088 162.758 246.051 163.026 245.696C163.489 245.055 163.263 244.427 162.768 243.831C162.438 243.972 161.913 244.076 161.761 244.351C161.505 244.748 161.549 245.382 161.995 245.808ZM161.001 241.705C161.368 242.016 161.74 241.863 162.008 241.508C162.142 241.331 162.245 240.886 162.166 240.77C161.799 240.46 161.451 240.698 161.159 240.967C161.092 241.217 160.891 241.644 161.001 241.705ZM160.673 238.473C160.93 238.4 161.296 238.387 161.43 238.21C161.564 238.033 161.508 237.679 161.533 237.441C161.276 237.515 161.02 237.588 160.776 237.705C160.709 237.955 160.697 238.235 160.673 238.473ZM160.053 235.187C160.077 235.272 160.285 235.351 160.425 235.357C161.042 235.411 161.45 235.063 161.602 234.465C161.717 234.062 161.735 233.641 161.295 233.398C160.911 233.185 160.484 233.308 160.069 233.797C159.886 234.126 159.808 234.657 160.053 235.187ZM160.395 231.07C160.926 231.148 161.164 230.849 161.224 230.416C161.23 230.275 160.894 229.91 160.809 229.935C160.553 230.008 160.333 230.21 160.156 230.399C159.961 230.686 160.078 230.93 160.395 231.07ZM160.737 226.306C160.756 226.532 160.927 226.806 161.104 226.94C161.391 227.134 161.623 226.975 161.708 226.627C161.775 226.377 161.842 226.127 161.853 225.847C161.835 225.621 161.676 225.389 161.614 225.176C161.413 225.28 161.181 225.439 160.98 225.543C160.828 225.818 160.706 226.038 160.737 226.306ZM164.259 221.829C163.858 223.33 163.567 224.892 163.472 226.49C163.017 233.596 163.99 240.523 166.41 247.173C168.351 252.481 171.952 256.805 175.613 261.019C175.895 261.354 176.322 261.555 176.712 261.304C176.914 261.2 177.139 260.858 177.163 260.62C177.294 258.18 178.152 255.855 178.533 253.482C178.782 251.932 178.792 250.359 178.802 248.785C178.8 246.846 178.114 245.103 176.476 243.91C172.359 240.844 171.487 236.844 173.037 232.103C173.317 231.145 173.444 230.138 173.625 229.162C174.486 224.757 172.675 221.351 169.711 218.276C168.397 217.083 166.774 217.226 165.738 218.771C165.123 219.687 164.587 220.719 164.259 221.829Z" fill="#7A5941"/>
<path d="M42.1906 110.148C46.8629 107.743 51.7686 106.471 57.1038 107.017C63.1533 107.635 68.9274 112.443 69.718 119.699C70.033 122.565 69.6887 125.389 68.9233 128.196C67.7873 132.449 65.3871 136.003 62.712 139.405C58.221 145.176 52.5685 149.48 45.589 151.901C41.3062 153.409 36.9368 153.972 32.4858 152.802C27.7294 151.536 24.4053 148.657 22.8916 143.872C21.6167 139.758 21.9716 135.683 23.297 131.607C24.756 127.03 27.2167 123.043 30.447 119.481C33.7379 115.487 37.7196 112.449 42.1906 110.148ZM38.8565 137.483C38.2721 138.667 37.053 139.895 38.3549 141.369C38.6239 141.661 38.4717 141.936 38.1236 141.851C37.0064 141.664 36.6047 142.518 36.2089 143.233C35.0337 145.418 33.4246 147.22 31.3572 148.553C30.6498 148.988 30.895 149.841 31.7255 150.157C34.4674 151.171 37.281 151.147 40.2166 150.904C41.5287 150.804 41.8561 149.047 43.0651 149.393C44.1763 149.72 44.6338 149.543 44.8216 148.426C44.8698 147.95 45.3152 147.73 45.7245 148.028C47.0624 148.983 47.3973 148.379 47.5238 147.049C47.6325 146.14 48.2371 146.474 48.7014 146.803C49.5751 147.43 50.1422 146.99 49.9946 146.154C49.7545 144.514 50.1511 144.446 51.5131 145.164C52.7102 145.79 52.4219 144.625 52.3906 144.034C52.3716 143.485 52.1754 142.802 53.0177 142.837C53.622 142.848 54.118 144.092 54.7396 143.359C55.02 143.047 54.4999 142.042 54.4318 141.322C54.401 141.054 54.5105 140.791 54.62 140.529C54.6809 140.419 54.8027 140.199 54.9004 140.217C56.8481 140.72 56.6917 137.763 58.4926 138.076C59.2191 138.191 58.9866 137.704 58.9312 137.35C58.8817 136.856 59.1621 136.544 59.6014 136.464C59.9981 136.397 60.4315 136.457 60.8527 136.474C60.4595 134.462 62.7493 135.19 63.2728 134.116C63.6563 133.359 64.0399 132.602 64.4112 131.802C65.9146 128.506 66.9845 125.15 66.9004 121.479C66.8873 120.789 66.862 120.058 66.3668 119.461C65.3177 119.993 65.423 121.164 65.0212 122.019C63.1833 126.242 60.1962 129.041 55.5768 129.86C52.7575 130.347 49.9383 130.834 47.1068 131.278C43.2684 131.919 40.5062 134.052 38.8565 137.483ZM29.1906 124.924C26.5891 128.582 24.9525 132.701 24.4944 137.222C24.1806 139.991 24.5746 142.649 25.8901 145.136C26.5815 146.415 27.4119 146.731 28.6991 146.222C30.3585 145.561 31.7244 144.521 32.5219 142.953C33.2281 141.549 33.8794 140.114 34.4757 138.649C34.9747 137.49 35.4614 136.287 35.9482 135.085C37.0676 132.223 39.1954 130.456 42.0506 129.451C44.9058 128.446 47.9022 128.093 50.8864 127.697C52.5829 127.487 54.2795 127.277 56.0187 127.054C58.8625 126.653 60.6914 124.972 61.7563 122.403C62.2553 121.243 62.6747 119.967 62.8684 118.711C63.6377 114.147 60.8681 110.462 56.3079 109.879C55.203 109.734 54.0308 109.517 52.7926 110.196C53.1119 111.629 54.7606 112.217 55.0249 113.62C55.0803 113.973 55.1111 114.242 54.8122 114.328C54.5986 114.389 54.2324 114.402 54.0553 114.268C52.8759 113.221 51.6966 112.174 50.5904 111.06C49.6736 110.122 48.8012 110.465 47.868 110.918L48.0511 110.912C48.0206 110.967 48.0329 111.01 48.0025 111.064C47.9902 111.022 47.9352 110.991 47.9229 110.949C42.6938 112.22 38.2723 115.015 34.4744 118.694C32.536 120.637 30.7747 122.713 29.1906 124.924Z" fill="#7A5941"/>
<path d="M46.0569 116.844C46.0814 116.929 46.0328 117.082 45.9719 117.191C45.911 117.301 45.722 117.448 45.667 117.418C45.0623 117.083 44.4576 116.749 43.8834 116.36C43.4127 115.848 42.9117 115.392 42.441 114.88C42.4288 114.837 42.4774 114.685 42.5506 114.618C42.6665 114.538 42.825 114.446 42.9227 114.465C44.4061 114.639 45.396 115.509 46.0569 116.844Z" fill="#7A5941"/>
<path d="M51.8961 115.443C50.3996 114.579 49.4651 114.063 48.5183 113.503C47.4066 112.853 47.7107 111.98 48.0025 111.065C49.0845 112.417 51.1422 112.98 51.8961 115.443Z" fill="#7A5941"/>
<path d="M46.5979 115.348C45.9869 114.831 45.6325 114.563 45.3636 114.271C45.0947 113.979 44.7889 113.559 45.3501 113.259C45.5514 113.155 45.9176 113.142 46.1252 113.221C47.0352 113.652 47.8111 114.261 48.2213 115.205C48.3253 115.406 48.1427 115.736 48.0636 115.944C48.0331 115.998 47.8073 116.017 47.6974 115.956C47.2149 115.725 46.7506 115.397 46.5979 115.348Z" fill="#7A5941"/>
<path d="M39.8917 116.629C39.8122 116.513 39.7386 116.257 39.7813 116.245C39.9826 116.141 40.2875 115.915 40.4401 115.963C41.411 116.285 42.2783 116.728 42.8593 117.624C42.9388 117.74 42.9574 117.965 42.8842 118.032C42.6952 118.179 42.3903 118.405 42.2804 118.344C41.633 118.022 41.0588 117.633 40.5518 117.317C40.2951 117.067 40.0507 116.86 39.8917 116.629Z" fill="#7A5941"/>
<path d="M36.7855 121.91C37.0299 122.117 37.067 122.568 37.2201 122.94C36.9639 123.013 36.6772 123.142 36.4391 123.118C35.4927 122.882 34.5341 122.603 34.1726 121.506C35.1545 120.9 36.0095 121.301 36.7855 121.91Z" fill="#7A5941"/>
<path d="M34.982 123.999C35.0678 124.298 35.2636 124.657 35.1904 124.725C35.0014 124.871 34.672 125.012 34.4766 124.976C33.866 124.782 33.2309 124.502 32.6262 124.168C32.4613 124.077 32.4913 123.699 32.43 123.485C32.6863 123.412 32.918 123.253 33.1683 123.319C33.7789 123.513 34.4141 123.793 34.982 123.999Z" fill="#7A5941"/>
<path d="M38.8593 121.083C38.8657 121.266 38.4999 121.602 38.3472 121.553C37.9565 121.481 37.5717 121.268 37.3091 121.159C36.9974 120.879 36.753 120.672 36.6063 120.483C36.3374 120.191 36.3615 119.953 36.6482 119.824C37.2702 119.414 38.8522 120.253 38.8593 121.083Z" fill="#7A5941"/>
<path d="M31.2412 129.647C31.278 129.775 31.3698 129.933 31.3089 130.043C31.2907 130.141 31.1871 130.263 31.0589 130.3C30.2475 130.533 29.4356 130.443 28.7269 129.907C28.6047 129.804 28.6042 129.481 28.5856 129.255C28.5611 129.17 28.8051 129.053 28.8906 129.029C29.7634 129.009 30.5934 129.001 31.2412 129.647Z" fill="#7A5941"/>
<path d="M33.8674 126.398C33.8919 126.483 33.5444 126.721 33.3308 126.783C32.9769 126.838 32.6107 126.851 32.2445 126.864C31.9024 126.639 31.5603 126.414 31.2914 126.122C31.1569 125.975 31.022 125.506 31.0952 125.439C31.7781 124.919 33.6649 125.532 33.8674 126.398Z" fill="#7A5941"/>
<path d="M31.6606 128.372C31.3921 128.403 31.0745 128.263 30.8851 128.086C30.6956 127.91 30.5794 127.666 30.4204 127.435C30.6217 127.33 30.8411 127.129 31.0547 127.067C31.3963 126.969 31.8053 126.944 32.1592 126.889C32.4281 127.181 32.8924 127.509 32.8928 127.833C32.8818 128.76 32.1 128.292 31.6606 128.372Z" fill="#7A5941"/>
<path d="M32.1187 126.9C32.1607 126.888 32.2028 126.876 32.2449 126.864C32.257 126.906 32.2149 126.918 32.1187 126.9Z" fill="#7A5941"/>
<path d="M38.6666 117.997C39.0392 118.167 39.4239 118.38 39.7233 118.617C39.9128 118.794 39.9132 119.117 39.9868 119.373C39.706 119.361 39.3947 119.405 39.1749 119.283C38.8328 119.058 38.5211 118.778 38.2645 118.528C38.2458 118.303 38.2091 118.175 38.215 118.034C38.3859 117.985 38.5567 117.936 38.6666 117.997Z" fill="#7A5941"/>
<path d="M45.4762 121.26C45.2626 121.322 44.8474 121.164 44.7556 121.005C44.6639 120.847 44.8466 120.517 44.8584 120.237C45.121 120.346 45.3409 120.468 45.6035 120.577C45.8724 120.869 45.8606 121.15 45.4762 121.26Z" fill="#7A5941"/>
<path d="M51.1696 119.671C50.9192 119.604 50.5408 119.575 50.4917 119.404C50.4 119.245 50.5949 118.958 50.7044 118.696C50.9121 118.775 51.2905 118.805 51.3396 118.975C51.4436 119.177 51.2487 119.464 51.1696 119.671Z" fill="#7A5941"/>
<path d="M54.8161 117.56C55.195 117.913 55.11 118.261 54.8724 118.56C54.8419 118.615 54.6038 118.591 54.4939 118.53C54.1518 118.305 53.9683 117.988 54.2241 117.591C54.34 117.512 54.6453 117.609 54.8161 117.56Z" fill="#7A5941"/>
<path d="M28.2561 134.385C28.1343 134.604 28.0616 134.995 27.8907 135.044C27.6772 135.105 27.3292 135.021 27.097 134.856C26.8099 134.662 26.8644 134.369 27.0961 134.21C27.5414 133.99 27.9199 134.019 28.2561 134.385Z" fill="#7A5941"/>
<path d="M40.5597 123.458L40.4007 123.227L40.6938 123.281L40.5597 123.458Z" fill="#7A5941"/>
<path d="M29.6139 131.87C29.6812 131.943 29.6998 132.168 29.6693 132.223C29.3095 132.419 29.0287 132.407 28.8207 132.005C28.9788 131.59 29.2718 131.645 29.6139 131.87Z" fill="#7A5941"/>
<path d="M27.9475 131.379C28.1919 131.586 28.4363 131.793 28.693 132.042C28.4004 132.311 28.0769 132.312 27.7775 132.074C27.643 131.928 27.6549 131.648 27.5936 131.434C27.7094 131.355 27.8803 131.306 27.9475 131.379Z" fill="#7A5941"/>
<path d="M28.8092 131.963L28.8213 132.005C28.8334 132.047 28.7913 132.059 28.7913 132.059L28.8092 131.963C28.7914 132.059 28.8035 132.101 28.8035 132.101C28.7913 132.059 28.7493 132.071 28.7372 132.029C28.7251 131.987 28.7793 132.017 28.8092 131.963Z" fill="#7A5941"/>
<path d="M42.7058 121.917C42.5959 121.857 42.4555 121.851 42.376 121.735C42.3637 121.692 42.4246 121.583 42.4855 121.473C42.5955 121.533 42.7481 121.582 42.8458 121.6C42.8276 121.698 42.7667 121.808 42.7058 121.917Z" fill="#7A5941"/>
<path d="M45.7602 137.855C45.9987 138.202 46.2676 138.495 46.5366 138.787C45.7128 138.977 44.5774 138.888 44.0898 139.444C43.1756 140.446 42.3996 139.837 41.5509 139.619L41.5573 139.802C41.545 139.759 41.4901 139.729 41.4901 139.729C41.4901 139.729 41.5328 139.717 41.5205 139.674C41.1776 138.802 40.8896 137.961 40.5467 137.09C41.2474 136.149 42.4433 135.806 43.3588 135.773C44.4451 135.692 45.112 136.886 45.7602 137.855Z" fill="#7A5941"/>
<path d="M45.2625 135.319C45.2257 135.191 45.3048 134.983 45.3902 134.958C45.5915 134.854 45.9636 134.701 46.0858 134.805C46.5074 135.146 46.9412 135.529 47.2165 136.004C47.5163 136.565 48.225 137.1 47.756 137.882C47.4697 138.334 46.5966 138.03 46.5365 138.787C46.9801 137.273 45.3923 136.575 45.2625 135.319Z" fill="#7A5941"/>
<path d="M50.4114 133.285C50.7159 132.735 51.0948 133.088 51.3819 133.283C51.6141 133.447 51.8462 133.612 52.0052 133.843C52.2864 134.178 52.5494 134.611 51.976 134.868C51.6466 135.009 51.2313 134.851 50.9078 134.851C50.6694 134.504 50.4372 134.34 50.3636 134.084C50.3023 133.871 50.2896 133.505 50.4114 133.285Z" fill="#7A5941"/>
<path d="M48.241 135.064C48.1247 134.82 48.0512 134.564 47.9653 134.265C48.2461 134.277 48.5146 134.246 48.7772 134.355C49.0398 134.464 49.272 134.629 49.4309 134.86C49.6694 135.207 49.7798 135.591 49.9451 136.006C49.5544 135.933 49.176 135.904 48.8829 135.849C48.6017 135.514 48.4 135.295 48.241 135.064Z" fill="#7A5941"/>
<path d="M41.0206 140.187C40.6426 140.48 40.246 140.548 39.9707 140.073C39.8667 139.872 39.8113 139.518 39.9454 139.341C40.1767 138.859 40.6651 138.95 41.0376 139.12C41.2452 139.199 41.3615 139.442 41.5509 139.619C41.3437 139.863 41.2219 140.083 41.0206 140.187Z" fill="#7A5941"/>
<path d="M53.964 133.419C54.019 133.449 53.9948 133.687 54.0193 133.773C53.7813 133.749 53.525 133.822 53.4028 133.719C53.2806 133.615 53.2925 133.335 53.2861 133.152C53.506 133.273 53.7441 133.297 53.964 133.419Z" fill="#7A5941"/>
<path d="M49.1012 139.99C48.9913 139.929 48.8936 139.911 48.7837 139.85C48.8445 139.74 48.8627 139.643 48.9359 139.575C49.0458 139.636 49.1435 139.654 49.2534 139.715C49.223 139.77 49.1194 139.892 49.1012 139.99Z" fill="#7A5941"/>
<path d="M203.061 18.0012C206.617 16.3788 210.345 15.3537 214.282 15.3772C223.352 15.4039 229.396 21.4739 229.365 30.537C229.369 33.4462 228.829 36.2343 227.703 38.9137C224.746 45.9998 220.023 51.607 213.748 55.9971C209.821 58.7424 205.533 60.7138 200.828 61.5577C196.959 62.2537 193.113 62.0653 189.443 60.3946C186.89 59.2342 184.923 57.536 183.583 54.9646C181.319 50.6262 181.283 46.1557 182.461 41.5672C183.76 36.4357 186.544 32.125 189.231 28.7658C193.284 24.0442 198.284 20.2053 203.061 18.0012ZM197.642 47.737C196.207 51.7526 194.081 55.1352 190.532 57.5871C190.459 57.6543 190.465 57.8373 190.392 58.2278C193.513 59.9178 196.889 59.9179 200.276 59.3142C201.508 59.0986 202.244 57.3164 203.839 58.198C203.966 57.8379 204.125 57.4229 204.252 57.0628C204.362 56.8004 204.484 56.5806 204.648 56.3485C206.249 57.7363 206.833 56.2288 207.576 55.2761C207.607 55.2211 207.857 55.2878 207.967 55.3486C209.067 55.9565 209.56 55.5836 209.498 54.4005C209.448 53.5834 209.991 53.3811 210.559 53.5875C211.377 53.8605 211.835 54.0061 211.925 52.8715C212.063 51.2612 212.106 51.2489 213.59 52.0696C213.7 52.1304 213.841 52.1363 213.981 52.1421C214.517 51.4337 214.053 50.7819 213.954 50.1173C213.886 49.721 214.057 49.3487 214.117 48.9156C216.224 49.6498 215.884 46.052 217.99 46.7863C218.296 46.8833 218.485 46.7366 218.429 46.383C218.159 44.7977 219.032 44.7779 220.143 45.1053C220.198 45.1357 220.46 44.9218 220.435 44.8364C220.128 42.7999 222.503 43.5032 223.154 42.0688C224.925 38.0953 226.483 34.1831 226.416 29.7676C226.397 29.2187 226.408 28.6149 225.877 28.2133C224.919 28.5809 224.908 29.508 224.622 30.2831C222.889 35.0311 219.444 37.6841 214.501 38.504C212.109 38.868 209.698 39.3297 207.294 39.6511C202.357 40.3307 199.266 43.2514 197.642 47.737ZM186.91 36.4546C185.345 39.5373 184.141 42.7475 183.98 46.212C183.807 48.9873 184.286 51.6212 185.687 54.0827C186.158 54.9174 186.903 55.2576 187.861 54.89C189.832 54.1852 191.35 52.8712 192.3 51.0277C193.109 49.5015 193.712 47.8964 194.369 46.3217C194.868 45.162 195.355 43.9597 195.896 42.7877C196.98 40.4438 198.815 38.9464 201.2 38.0761C203.616 37.1509 206.167 36.6951 208.724 36.4222C211 36.1377 213.277 35.8531 215.565 35.6112C221.881 34.9048 224.426 24.9347 221.052 21.2385C219.842 19.9233 218.723 18.7665 216.862 18.5624C215.336 18.4004 213.797 17.8725 212.339 18.7534C212.695 20.3141 215.125 20.7245 214.267 22.7264C212.71 22.6194 211.909 21.2791 210.992 20.3415C209.672 18.9654 208.494 18.8882 206.822 19.5072C204.522 20.3529 202.277 21.229 200.344 22.7083C199.612 23.0573 198.935 23.4366 198.203 23.7855L198.289 23.761L198.301 23.8036C198.301 23.8036 198.258 23.8159 198.246 23.7732C193.435 27.1422 189.546 31.3086 186.91 36.4546Z" fill="#7A5941"/>
<path d="M205.414 24.9014C205.628 25.1633 206.062 25.5467 205.458 25.8588C205.256 25.9629 204.878 25.9331 204.701 25.7992C203.21 24.7955 201.75 23.7369 200.247 22.6905C202.487 22.2779 204.045 23.3547 205.414 24.9014Z" fill="#7A5941"/>
<path d="M204.586 22.5058C204.452 22.3596 204.537 22.0118 204.604 21.7617C204.689 21.4139 204.957 21.3829 205.287 21.5653C206.429 22.161 207.34 22.9156 208.178 24.384C206.285 24.2349 205.405 23.4253 204.586 22.5058Z" fill="#7A5941"/>
<path d="M202.321 25.8828C202.455 26.0289 202.468 26.3948 202.389 26.6023C202.291 26.9074 201.98 26.9507 201.663 26.811C200.154 26.2281 199.164 25.0345 198.247 23.7736C199.682 24.4237 201.306 24.6038 202.321 25.8828Z" fill="#7A5941"/>
<path d="M207.538 20.8721C207.557 20.7745 207.746 20.6277 207.843 20.6459C209.492 20.9113 210.384 22.0868 211.289 23.305C211.356 23.3781 211.253 23.5002 211.29 23.6283C208.01 22.03 207.423 21.598 207.538 20.8721Z" fill="#7A5941"/>
<path d="M196.645 31.3939C194.63 31.1413 194.63 31.1413 193.433 29.8687C195.453 29.981 195.453 29.981 196.645 31.3939Z" fill="#7A5941"/>
<path d="M196.508 29.6313C196.166 29.083 195.372 28.8953 195.933 28.2723C196.11 28.0829 196.769 28.1244 197.086 28.2641C197.569 28.495 197.99 28.8358 198.382 29.2316C198.504 29.335 198.376 29.6951 198.297 29.9026C198.279 30.0002 198.065 30.0616 197.925 30.0557C197.424 29.9224 196.911 29.7465 196.508 29.6313Z" fill="#7A5941"/>
<path d="M195.005 33.2508C195.042 33.3788 194.749 33.6476 194.585 33.8797C193.73 33.4787 192.692 33.4073 192.123 32.5544C192.044 32.4387 192.232 31.9688 192.275 31.9565C193.398 32.0033 194.479 32.0624 195.005 33.2508Z" fill="#7A5941"/>
<path d="M194.554 33.9343C193.701 34.8262 192.865 35.6206 191.522 35.4522C191.131 35.0564 190.472 34.6917 190.733 34.1545C190.922 33.6845 191.679 33.7442 192.204 33.9628C192.98 34.2481 193.779 34.2955 194.554 33.9343Z" fill="#7A5941"/>
<path d="M192.348 36.5547C192.355 37.0609 191.793 37.0375 191.445 36.9528C191.054 36.8803 190.621 36.82 190.291 36.6377C190.071 36.5161 189.802 36.2238 189.839 36.0286C189.875 35.5101 190.351 35.558 190.717 35.5452C190.943 35.5265 191.169 35.5078 191.425 35.4342C191.535 35.495 191.633 35.5131 191.755 35.6166C191.938 35.9334 192.36 36.2742 192.348 36.5547Z" fill="#7A5941"/>
<path d="M191.384 35.4462C191.426 35.4341 191.468 35.422 191.51 35.4099C191.481 35.4641 191.439 35.4762 191.384 35.4462Z" fill="#7A5941"/>
<path d="M198.679 27.8526C198.446 27.6883 198.226 27.5667 197.994 27.4025C197.878 27.1587 197.719 26.9272 197.615 26.7262C197.884 26.6952 198.128 26.5789 198.366 26.6029C198.616 26.6695 198.891 26.8215 199.08 26.998C199.27 27.1746 199.453 27.4914 199.417 27.6866C199.277 28.004 198.966 28.0473 198.679 27.8526Z" fill="#7A5941"/>
<path d="M190.446 37.9794C190.623 38.1132 190.666 38.4242 190.783 38.668C190.581 38.772 190.319 38.9859 190.124 38.9497C189.593 38.8713 189.049 38.7503 188.579 38.5621C188.426 38.5135 188.371 38.1599 188.255 37.9162C188.328 37.8489 188.432 37.7268 188.517 37.7022C189.188 37.4632 189.86 37.5474 190.446 37.9794Z" fill="#7A5941"/>
<path d="M188.623 40.1657C188.831 40.2447 188.929 40.586 189.076 40.7748C188.948 40.8117 188.874 40.8789 188.746 40.9157C188.057 40.9291 187.41 40.9302 186.884 40.3884C186.817 40.3153 186.81 40.1323 186.774 40.0043C186.926 39.7296 187.878 39.8255 188.623 40.1657Z" fill="#7A5941"/>
<path d="M214.669 26.5381C214.425 26.6544 214.236 26.8012 213.992 26.9175C213.876 26.6737 213.717 26.4422 213.686 26.1739C213.661 25.7653 213.905 25.649 214.204 25.8864C214.449 26.0933 214.565 26.337 214.669 26.5381Z" fill="#7A5941"/>
<path d="M187.504 42.7051C187.614 42.7659 187.614 43.0891 187.633 43.3148C187.383 43.5714 186.791 43.6029 186.565 43.2984C186.485 43.1826 186.436 43.012 186.497 42.9021C186.722 42.5601 187.119 42.4923 187.504 42.7051Z" fill="#7A5941"/>
<path d="M204.594 28.9706C204.772 29.1044 204.918 29.2932 205.053 29.4394C204.882 29.4885 204.723 29.5802 204.553 29.6293C204.449 29.4282 204.332 29.1845 204.228 28.9834C204.326 29.0015 204.527 28.8975 204.594 28.9706Z" fill="#7A5941"/>
<path d="M210.928 27.8431C210.703 27.8618 210.404 27.9477 210.336 27.8747C210.202 27.7285 210.214 27.4479 210.152 27.2346C210.403 27.3012 210.653 27.3679 210.873 27.4895C210.916 27.4772 210.892 27.7151 210.928 27.8431Z" fill="#7A5941"/>
<path d="M203.895 44.878C204.097 45.0972 204.286 45.2737 204.488 45.493C205.576 46.7047 205.331 46.4978 203.691 47.7083C202.63 48.5213 202.154 48.4733 201.427 47.7123C200.956 47.2008 200.516 46.6344 200.161 46.0434C199.965 45.6839 200.166 44.9334 200.459 44.9877C201.368 45.0959 201.856 44.8633 202.49 44.173C202.771 43.8615 203.473 44.5372 203.895 44.878Z" fill="#7A5941"/>
<path d="M204.912 43.4307C204.888 43.3454 205.077 43.1987 205.132 43.2291C206.671 43.757 207.154 44.9576 207.407 46.6405C205.862 45.9296 204.884 45.1019 204.912 43.4307Z" fill="#7A5941"/>
<path d="M207.555 43.1331C207.518 43.0051 207.756 42.7058 207.932 42.5164C208.006 42.4492 208.244 42.4732 208.299 42.5036C208.647 42.9116 208.995 43.3196 209.271 43.7948C209.454 44.1117 209.662 44.5138 209.174 44.7465C209.016 44.8382 208.704 44.5582 208.277 44.3577C208.105 44.0835 207.787 43.6206 207.555 43.1331Z" fill="#7A5941"/>
<path d="M200.615 47.9453C200.866 48.3352 201.019 48.7069 200.488 48.9518C200.287 49.0559 199.853 48.9956 199.676 48.8618C199.322 48.594 199.217 48.0697 199.54 47.7459C199.851 47.3794 200.261 47.6775 200.615 47.9453Z" fill="#7A5941"/>
<path d="M210.141 41.8358C210.642 41.6458 210.923 41.9808 211.234 42.2608C211.546 42.5408 211.754 42.9429 211.333 43.2486C211.175 43.3404 210.802 43.1703 210.564 43.1463C210.008 42.6594 209.769 41.9889 210.141 41.8358Z" fill="#7A5941"/>
<path d="M198.506 49.9374C198.573 50.0105 198.622 50.1812 198.549 50.2484C198.342 50.4927 198.116 50.5114 198.042 50.2554C198.018 50.17 198.122 50.0479 198.14 49.9502C198.323 49.9438 198.451 49.907 198.506 49.9374Z" fill="#7A5941"/>
<path d="M208.752 48.425C208.978 48.7295 208.844 48.9067 208.484 48.7792C208.386 48.7611 208.337 48.5904 208.312 48.5051C208.3 48.4624 208.416 48.3829 208.446 48.3279C208.587 48.3338 208.727 48.3397 208.752 48.425Z" fill="#7A5941"/>
<path d="M213.407 42.4214C213.145 42.6353 212.894 42.5687 212.723 42.2945C212.686 42.1665 212.692 42.0262 212.656 41.8982C212.894 41.9222 213.132 41.9462 213.394 42.0555C213.407 42.0982 213.45 42.4091 213.407 42.4214Z" fill="#7A5941"/>
</g>
</svg>
